<svg xmlns="http://www.w3.org/2000/svg" width="1076" height="1076" viewBox="0 0 1076 1076" version="1.1"><path d="M 293.381 8.241 C 288.031 24.083, 290.101 42.110, 298.820 55.600 C 308.113 69.978, 322.033 78.836, 338.903 81.106 C 366.017 84.755, 391.668 67.589, 399.534 40.531 C 402.054 31.864, 401.198 14.682, 397.840 6.500 L 395.377 0.500 345.774 0.241 L 296.170 -0.019 293.381 8.241 M 692.452 8.144 C 692.843 12.623, 693.528 17.010, 693.976 17.894 C 694.423 18.777, 696.394 22.904, 698.357 27.063 C 706.832 45.028, 726.343 57, 747.148 57 C 775.088 57, 798.816 35.041, 801.533 6.670 L 802.172 0 746.957 0 L 691.742 0 692.452 8.144 M 978.124 14.578 C 969.635 16.861, 959.334 22.826, 953.080 29.080 C 931.624 50.536, 931.552 85.763, 952.921 107.056 C 960.045 114.155, 966.121 117.969, 975.500 121.229 C 983.645 124.060, 1000.081 124.245, 1008 121.596 C 1026.430 115.429, 1038.991 103.051, 1045.651 84.492 C 1048.425 76.761, 1048.183 59.545, 1045.178 50.810 C 1039.151 33.289, 1024.025 19.095, 1006.540 14.549 C 999.173 12.634, 985.297 12.648, 978.124 14.578 M 178.601 61.642 C 160.774 65.464, 145.964 77.950, 138.776 95.218 C 134.818 104.729, 133.775 120.252, 136.468 129.577 C 143.016 152.245, 160.373 167.402, 183.974 171.064 C 199.802 173.520, 218.436 166.642, 230.445 153.911 C 239.911 143.877, 244.365 134.086, 245.584 120.636 C 248.093 92.946, 228.923 67.230, 201.500 61.498 C 192.880 59.696, 187.520 59.730, 178.601 61.642 M 602.020 61.476 C 601.148 62.527, 602.167 65.052, 606.535 72.667 C 612.851 83.674, 614.320 85.539, 615.904 84.559 C 617.715 83.440, 617.158 80.642, 614.190 75.946 C 612.644 73.501, 610.112 69.164, 608.563 66.308 C 605.496 60.657, 603.763 59.376, 602.020 61.476 M 588 64.452 C 588 65.250, 591.515 71.905, 595.812 79.241 C 600.109 86.576, 603.919 93.348, 604.281 94.289 C 605.105 96.437, 609 96.570, 609 94.450 C 609 92.460, 607.287 89.142, 598.829 74.750 C 593.739 66.089, 591.408 63, 589.962 63 C 588.883 63, 588 63.653, 588 64.452 M 576.479 69.034 C 576.128 69.602, 579.538 76.465, 584.057 84.284 C 588.576 92.103, 592.920 99.737, 593.710 101.250 C 595.297 104.287, 599 105.043, 599 102.330 C 599 100.754, 585.864 76.689, 581.763 70.750 C 579.812 67.925, 577.607 67.208, 576.479 69.034 M 566.368 76.482 C 565.865 77.795, 577.095 98.881, 582.223 106.250 C 584.443 109.442, 587 109.872, 587 107.054 C 587 105.218, 585.560 102.471, 575.702 85.500 C 569.646 75.075, 567.649 73.146, 566.368 76.482 M 558 88.021 C 558 91.180, 569.238 109.956, 571.143 109.980 C 572.047 109.991, 573.008 109.422, 573.279 108.715 C 573.732 107.534, 569.225 98.908, 563.369 89.750 C 560.765 85.677, 558 84.786, 558 88.021 M 621.342 92.816 C 620.757 93.192, 619.544 94.935, 618.646 96.689 C 616.284 101.299, 607.933 109.174, 601.957 112.427 C 595.592 115.891, 588.018 117.972, 581.719 117.988 C 576.735 118.001, 574.203 120.249, 577.104 122.086 C 582.942 125.782, 604.107 118.954, 613.306 110.407 C 619.015 105.102, 624 98.145, 624 95.482 C 624 92.843, 622.945 91.784, 621.342 92.816 M 166.859 112.158 C 153.732 119.769, 158.411 139.167, 173.374 139.167 C 182.309 139.167, 188.231 133.451, 188.231 124.827 C 188.231 113.512, 176.507 106.563, 166.859 112.158 M 836.241 120.250 C 833.125 123.577, 832 127.373, 832 134.565 C 832 138.104, 831.757 141, 831.460 141 C 831.162 141, 829.585 140.014, 827.955 138.809 C 824.351 136.144, 820.823 136.997, 817.613 141.309 C 815.817 143.721, 815.530 145.484, 815.579 153.809 C 815.626 161.862, 816.176 165.190, 818.836 173.500 C 822.335 184.430, 827.737 195.801, 830.155 197.326 C 832.373 198.725, 836.760 197.331, 837.503 194.991 C 837.916 193.690, 837.073 191.122, 835.099 187.672 C 829.116 177.215, 823.589 155.653, 825.956 152 C 827.552 149.537, 829.365 152.356, 833.588 163.864 C 838.108 176.181, 840.055 179, 844.037 179 C 849.110 179, 849.448 176.251, 845.443 167.582 C 839.261 154.203, 836.189 137.500, 839.910 137.500 C 840.805 137.500, 842.527 141.100, 844.621 147.346 C 850.005 163.404, 854.019 168.666, 858.895 166.056 C 861.899 164.448, 862.410 161.389, 860.198 158.249 C 856.441 152.916, 853.979 146.989, 852.004 138.517 C 847.766 120.344, 842.198 113.891, 836.241 120.250 M 422.500 127.808 C 408.009 131.524, 394.578 141.779, 387.407 154.601 C 383.395 161.774, 380 174.149, 380 181.598 C 380 188.908, 382.569 199.332, 386.188 206.709 C 389.887 214.249, 398.163 223.613, 405.013 228.008 C 407.798 229.795, 409.946 231.376, 409.788 231.521 C 409.630 231.666, 407.700 232.779, 405.500 233.995 C 375.170 250.750, 354.325 268.070, 332.076 295 L 330.011 297.500 331.519 293.748 C 333.701 288.325, 336 276.648, 336 270.997 C 336 246.321, 317.397 223.315, 292.745 217.502 C 274.054 213.095, 255.327 218.534, 241.389 232.417 C 230.155 243.607, 225 255.734, 225 270.971 C 225 289.132, 231.942 303.698, 246.058 315.157 C 265.535 330.969, 294.850 330.855, 314.903 314.888 C 317.706 312.656, 320 311.157, 320 311.557 C 320 311.957, 318.119 315.258, 315.819 318.892 C 305.409 335.346, 293.795 362.653, 288.552 383 C 288.198 384.375, 287.306 387.750, 286.570 390.500 C 281.389 409.849, 276.984 448.121, 277.016 473.500 C 277.025 480.421, 277.065 480.526, 280.587 482.808 C 287.522 487.301, 287.953 489.656, 287.978 523.125 C 287.990 539.419, 288.281 554.156, 288.625 555.875 C 289.332 559.411, 292.057 560.026, 295.500 557.426 C 297.419 555.977, 297.513 554.554, 297.811 522.464 L 298.122 489.013 301.429 485.506 L 304.736 482 326.291 482 L 347.846 482 350.786 484.940 C 352.403 486.557, 354.013 489.313, 354.363 491.065 C 354.713 492.817, 355 517.166, 355 545.175 C 355 601.010, 355.141 599.627, 348.984 604.011 C 346.061 606.093, 345.137 606.166, 325.969 605.840 C 314.985 605.653, 305.999 605.858, 305.999 606.296 C 306 606.733, 307.129 609.208, 308.509 611.796 L 311.017 616.500 302.079 617.146 C 286.730 618.256, 275.444 623.363, 265 633.926 C 231.770 667.533, 253.806 724.905, 301.018 727.701 C 306.644 728.035, 312.708 727.799, 315.848 727.126 C 335.960 722.813, 353.342 706.054, 358.505 686 C 359.425 682.425, 360.290 679.385, 360.428 679.245 C 360.565 679.105, 361.987 680.139, 363.588 681.544 C 389.376 704.166, 424.122 722.166, 459 730.972 C 483.478 737.151, 513.317 741, 536.752 741 C 547.676 741, 546.176 739.724, 556.008 757.383 C 566.006 775.340, 595.733 812.067, 615.315 830.655 L 624.959 839.810 616.527 843.987 C 596.187 854.063, 584.696 872.347, 584.780 894.500 C 584.842 910.625, 590.449 923.582, 602.118 934.565 C 615.301 946.972, 632.732 952.052, 650.298 948.607 C 662.040 946.304, 670.189 941.891, 679.040 933.040 C 688.366 923.714, 692.586 915.611, 694.726 902.921 C 696.043 895.108, 696.047 893.075, 694.758 885.778 C 693.954 881.225, 692.442 875.323, 691.400 872.662 L 689.503 867.824 692.103 865.662 C 693.533 864.473, 700.507 859.244, 707.601 854.042 C 714.696 848.841, 725.450 840.926, 731.500 836.455 C 737.550 831.983, 743.226 828.065, 744.113 827.746 C 745.261 827.335, 746.396 828.370, 748.048 831.334 C 760.472 853.628, 787.335 864.232, 811.807 856.501 C 816.158 855.127, 821.376 852.877, 823.403 851.501 C 825.430 850.125, 827.418 849, 827.821 849 C 829.380 849, 839.846 837.010, 842.758 831.889 C 844.443 828.925, 846.819 823.194, 848.038 819.153 C 851.030 809.233, 850.456 794.577, 846.714 785.339 C 840.245 769.369, 828.535 758.171, 812.319 752.449 C 802.538 748.997, 789.215 749.027, 778.925 752.523 C 761.616 758.404, 750.034 770, 743.006 788.483 C 742.046 791.010, 741.961 791.031, 738.949 789.474 C 734.626 787.238, 716.028 773.027, 706.500 764.678 C 699.350 758.413, 684.988 743.811, 680.754 738.500 C 679.876 737.400, 676.968 733.800, 674.290 730.500 C 667.483 722.110, 665 718.427, 665 716.720 C 665 715.903, 668.223 713.594, 672.250 711.526 C 712.478 690.867, 744.998 659.447, 767.348 619.646 C 776.129 604.009, 775.656 605.513, 773.176 601.100 C 771.299 597.760, 770.998 595.664, 770.985 585.864 C 770.968 573.360, 769.954 569.578, 768.114 575.154 C 765.015 584.544, 752.515 596.374, 739.744 602.003 C 722.223 609.725, 698.462 610.236, 680.020 603.286 C 672.405 600.417, 662.463 593.918, 657.778 588.748 C 655.331 586.048, 654 587.408, 654 592.609 C 654 595.079, 653.317 598.419, 652.483 600.033 C 649.754 605.310, 646.920 606, 627.980 606 C 610.898 606, 610.851 606.006, 606.680 608.797 C 593.942 617.319, 579.592 622.454, 558.885 625.899 C 550.766 627.250, 527.893 627.342, 521.326 626.051 C 518.672 625.529, 513.800 624.593, 510.500 623.972 C 496.473 621.332, 484.909 616.618, 473.320 608.815 L 469.140 606 447.219 606 C 424.689 606, 420.383 605.421, 416.436 601.861 C 413.725 599.417, 413.361 599.476, 409.347 603 L 405.930 606 385.916 606 C 369.981 606, 365.303 605.691, 362.967 604.483 C 356.907 601.349, 357 602.297, 357 543.536 C 357 504.762, 357.319 489.462, 358.155 488.123 C 359.080 486.643, 358.880 485.383, 357.155 481.821 C 355.229 477.841, 355 475.702, 355 461.652 C 355 442.706, 355.824 439.889, 362.212 436.990 C 365.941 435.298, 368.831 435.041, 384.384 435.022 C 403.702 434.998, 408.539 435.816, 412.214 439.728 C 414.432 442.089, 414.500 442.733, 414.500 461.476 C 414.500 478.787, 414.310 481, 412.670 482.812 C 411.200 484.437, 411.060 485.243, 411.955 486.917 C 413.485 489.775, 414.482 489.546, 417.449 485.656 C 419.839 482.523, 420 481.589, 420.003 470.906 C 420.007 456.262, 422.337 432.081, 425.020 418.852 C 430.742 390.632, 437.798 374.402, 453.455 353.454 C 456.091 349.928, 463.012 343.408, 471.402 336.548 C 475.179 333.460, 488.823 326.754, 496.697 324.115 C 512.073 318.964, 533.869 316.564, 551.500 318.081 C 599.108 322.177, 628.232 343.634, 647.076 388.500 C 655.923 409.563, 661.648 447.372, 660.745 478.777 C 660.488 487.729, 660.614 495.262, 661.025 495.516 C 661.437 495.770, 662.309 495.333, 662.964 494.544 C 665.116 491.950, 673.697 486.956, 679.652 484.830 C 700.828 477.272, 727.889 478.813, 745.347 488.570 C 753.352 493.044, 768.853 510.305, 769.070 514.987 C 769.118 516.013, 769.417 515.856, 770 514.500 C 770.473 513.400, 770.891 507.167, 770.930 500.650 L 771 488.800 774.400 485.400 L 777.800 482 789.778 482 C 799.349 482, 802.012 481.690, 803.035 480.458 C 804.070 479.211, 804.085 474.477, 803.114 455.708 C 802.453 442.944, 801.451 429.575, 800.887 426 C 797.808 406.489, 797.297 403.775, 794.585 392.500 C 785.964 356.671, 769.874 323.287, 747.111 294 C 739.459 284.154, 724.575 268.851, 714.500 260.471 C 700.944 249.195, 673.294 232.214, 660 227.001 C 656.975 225.815, 653.150 224.248, 651.500 223.520 C 635.787 216.587, 611.241 210.483, 581 205.988 C 562.461 203.232, 516.526 203.715, 492.500 206.919 C 489.200 207.359, 486.322 207.566, 486.104 207.379 C 485.885 207.193, 486.728 204.444, 487.976 201.270 C 490.782 194.133, 491.823 178.280, 490.047 169.726 C 486.156 150.985, 470.626 134.478, 451.160 128.394 C 443.511 126.003, 430.568 125.739, 422.500 127.808 M 432.152 149.509 C 423.419 153.574, 408.700 162.597, 405.814 165.655 C 400.019 171.792, 399.582 178.167, 404.337 187.177 C 416.543 210.301, 420.336 214.903, 428.452 216.425 C 432.723 217.226, 438.350 215.146, 450.191 208.387 C 468.433 197.975, 472.925 191.739, 469.483 181.602 C 467.850 176.792, 456.220 156.219, 453.113 152.644 C 450.667 149.828, 444.477 146.999, 440.790 147.010 C 438.980 147.015, 435.093 148.140, 432.152 149.509 M 433.500 155.617 C 410.721 167.302, 405.530 172.170, 407.803 179.715 C 409.258 184.547, 418.862 201.351, 422.969 206.250 C 427.794 212.005, 431.597 211.591, 445.900 203.750 C 467.075 192.141, 467.966 189.727, 457.750 171.633 C 450.244 158.337, 445.546 152.989, 441.405 153.026 C 439.807 153.040, 436.250 154.206, 433.500 155.617 M 439.200 157.200 C 437.560 158.840, 437.692 161.500, 439.487 162.989 C 442.665 165.627, 447.347 160.490, 444.427 157.569 C 442.549 155.692, 440.829 155.571, 439.200 157.200 M 429.180 167.682 C 415.982 174.185, 417.990 192.982, 432.322 197.092 C 438.327 198.815, 446.437 194.923, 449.603 188.800 C 456.298 175.854, 442.193 161.269, 429.180 167.682 M 1069.114 170.626 C 1055.410 173.424, 1040.017 185.601, 1033.099 199.118 C 1031.254 202.722, 1029.344 208.797, 1028.354 214.212 C 1026.931 221.988, 1026.872 224.422, 1027.936 231.373 C 1030.247 246.470, 1036.747 257.923, 1047.937 266.613 C 1055.102 272.177, 1059.158 274.375, 1066.011 276.411 C 1076.151 279.422, 1076 279.554, 1076 267.673 L 1076 257.346 1073.250 257.696 C 1070.637 258.028, 1069.951 257.084, 1059.500 238.773 C 1053.450 228.173, 1048.366 218.356, 1048.202 216.958 C 1047.960 214.889, 1048.584 214.092, 1051.558 212.674 C 1054.308 211.362, 1055.547 211.209, 1056.565 212.054 C 1057.309 212.671, 1061.874 220.124, 1066.709 228.616 L 1075.500 244.056 1075.772 224.962 C 1075.921 214.461, 1075.921 197.646, 1075.772 187.596 L 1075.500 169.323 1069.114 170.626 M 29.241 171.034 C 27.999 171.534, 23.949 173.916, 20.241 176.329 C 16.533 178.741, 12.065 181.452, 10.311 182.352 C 3.100 186.052, 1.847 193.047, 7.400 198.600 C 10.266 201.466, 11.512 202, 15.329 202 C 18.015 202, 20.466 201.392, 21.353 200.504 C 22.176 199.681, 23.896 198.546, 25.175 197.982 C 26.454 197.419, 29.300 195.603, 31.500 193.947 C 33.700 192.292, 36.512 190.513, 37.750 189.994 C 40.290 188.928, 43.991 183.422, 43.996 180.700 C 44.003 177.590, 41.083 173.094, 38.033 171.517 C 34.749 169.819, 32.564 169.699, 29.241 171.034 M 429.273 175.527 C 426.187 178.613, 425.819 179.498, 426.325 182.616 C 427.040 187.022, 428.557 188.916, 432.788 190.684 C 435.640 191.876, 436.515 191.849, 439.399 190.481 C 446.668 187.032, 447.030 177.135, 440.020 173.510 C 435.571 171.210, 433.133 171.667, 429.273 175.527 M 281.724 232.460 C 280.198 233.257, 274.186 238.316, 268.366 243.704 C 256.019 255.134, 252.002 261.772, 252.001 270.750 C 252 273.637, 252.414 276, 252.920 276 C 253.425 276, 254.596 273.721, 255.522 270.935 C 256.447 268.150, 257.430 266.096, 257.706 266.372 C 257.982 266.648, 257.663 271.663, 256.998 277.515 C 254.618 298.464, 259.464 313, 268.829 313 C 271.701 313, 273.269 312.021, 278.126 307.194 C 282.814 302.535, 285.160 301.031, 290.002 299.581 C 302.002 295.986, 310.970 284.522, 310.990 272.750 C 310.996 269.587, 310.622 267, 310.160 267 C 309.698 267, 306.965 268.288, 304.086 269.862 C 299.827 272.191, 298.412 273.676, 296.481 277.843 C 293.671 283.908, 289.295 286.993, 283.500 286.993 C 279.227 286.993, 273 283.881, 273 281.746 C 273 281.039, 275.587 279.010, 278.750 277.236 C 295.427 267.880, 307.478 260.664, 308.186 259.611 C 309.221 258.070, 306.045 253.275, 300.919 248.641 C 296.073 244.262, 289.987 242, 283.045 242 C 280.885 242, 278.868 241.595, 278.562 241.101 C 278.257 240.606, 279.596 238.806, 281.538 237.101 C 286.030 233.157, 290.062 232.992, 292.927 236.635 C 294.490 238.621, 295 238.856, 295 237.589 C 295 234.921, 290.411 230.999, 287.295 231.006 C 285.758 231.010, 283.251 231.664, 281.724 232.460 M 274.121 256.710 C 272.263 257.625, 269.902 259.753, 268.875 261.437 C 266.586 265.192, 266.366 271.819, 268.503 272.640 C 270.129 273.263, 290.142 262.073, 290.770 260.189 C 291.358 258.426, 284.884 255.005, 281 255.027 C 279.075 255.037, 275.980 255.795, 274.121 256.710 M 914.276 259.511 C 899.228 262.781, 884.329 274.410, 877.641 288.105 C 870.784 302.147, 869.405 313.570, 872.934 327.090 C 877.058 342.888, 886.029 354.444, 900.414 362.489 C 925.023 376.251, 958.073 367.683, 973.520 343.537 C 978.898 335.128, 981.127 327.908, 981.726 316.944 C 982.350 305.533, 981.210 299.487, 976.517 289.331 C 972.453 280.535, 961.793 269.219, 953.325 264.711 C 942.013 258.690, 927.158 256.712, 914.276 259.511 M 910.968 285.277 C 909.025 287.050, 902.642 292.651, 896.783 297.724 L 886.130 306.948 898.800 328.974 C 905.768 341.088, 911.927 351.011, 912.485 351.025 C 913.043 351.038, 921.487 348.466, 931.250 345.309 C 943.176 341.452, 949 339.105, 949 338.154 C 949 337.377, 945.312 330.386, 940.803 322.620 C 936.295 314.854, 931.458 306.436, 930.053 303.913 C 921.510 288.565, 917.325 282.056, 916 282.055 C 915.175 282.055, 912.911 283.504, 910.968 285.277 M 934.750 287.172 C 929.938 289.952, 926 292.832, 926 293.572 C 926 294.313, 927.237 296.978, 928.750 299.496 C 931.555 304.165, 935.073 306.092, 937.701 304.397 C 939.470 303.256, 948.148 284.048, 947.424 282.876 C 946.369 281.170, 943.399 282.176, 934.750 287.172 M 949.290 289.208 C 948.726 289.918, 946.409 294.438, 944.141 299.250 C 940.570 306.830, 939.683 308, 937.509 308 C 936.129 308, 935 308.403, 935 308.895 C 935 310.464, 942.463 322.981, 943.404 322.991 C 944.470 323.002, 956.292 316.538, 960.250 313.780 C 961.763 312.726, 963 311.196, 963 310.379 C 963 309.014, 952.829 290.525, 951.078 288.708 C 950.659 288.272, 949.854 288.497, 949.290 289.208 M 262.481 296.031 C 261.519 297.587, 263.937 304.815, 266.363 307.635 C 269.093 310.810, 272.112 310.460, 276.923 306.411 C 281.028 302.957, 280.835 301.239, 276.250 300.426 C 274.188 300.060, 270.374 298.714, 267.776 297.435 C 265.177 296.155, 262.794 295.523, 262.481 296.031 M 112 307.091 C 103.527 308.734, 93.031 314.791, 85.451 322.412 C 73.811 334.115, 68.257 348.626, 69.330 364.527 C 70.919 388.082, 85.700 406.744, 109 414.613 C 116.700 417.213, 133.403 417.193, 141 414.575 C 160.092 407.993, 173.847 393.435, 178.653 374.725 C 180.846 366.187, 180.003 349.697, 176.980 342 C 170.255 324.879, 155.930 312.082, 138.369 307.508 C 132.134 305.884, 119.277 305.681, 112 307.091 M 909.073 311.635 C 906.656 314.708, 906.458 317.767, 908.379 322.364 C 911.465 329.751, 919.913 332.468, 923.927 327.365 C 926.422 324.194, 926.553 320.968, 924.373 316.374 C 920.857 308.963, 913.071 306.552, 909.073 311.635 M 912.724 313.134 C 909.906 314.712, 910.504 320.413, 913.885 324.197 C 916.556 327.187, 916.972 327.334, 919.510 326.177 C 921.954 325.064, 922.187 324.540, 921.668 321.340 C 920.755 315.717, 915.965 311.321, 912.724 313.134 M 0 451 C 0 503.553, -0.886 499.813, 9.078 489.345 C 15.595 482.496, 19.081 476.803, 21.864 468.462 C 28.261 449.287, 23.636 428.236, 9.768 413.411 C -0.979 401.923, 0 398.155, 0 451 M 1004.201 415.997 C 997.144 417.500, 984.287 424.972, 978.276 431.064 C 965.765 443.741, 960.249 461.172, 963.422 478 C 964.200 482.125, 965.151 486.512, 965.535 487.750 C 966.222 489.962, 966.090 490, 957.693 490 C 946.926 490, 940.354 491.374, 931.500 495.477 C 919.762 500.916, 909.305 513.235, 905.699 525.870 C 904.062 531.610, 903.667 552.738, 905.080 559 C 908.936 576.083, 922.297 589.825, 940 594.914 C 942.475 595.626, 945.534 596.611, 946.797 597.104 C 950.108 598.396, 973.118 598.207, 978.736 596.843 C 985.002 595.320, 988.154 594.118, 995.444 590.469 C 1001.937 587.219, 1002.513 585.854, 999.864 580 C 999.242 578.625, 998.383 576.600, 997.955 575.500 C 997.528 574.400, 996.351 571.364, 995.339 568.754 C 993.278 563.435, 991.898 562.968, 986.763 565.852 C 982.126 568.457, 978.105 569.176, 965.381 569.678 C 954.999 570.088, 953.971 569.954, 949.881 567.662 C 944.261 564.512, 940.234 559.443, 939.823 555 L 939.500 551.500 971.338 551.236 L 1003.176 550.972 1002.655 540.236 C 1002.369 534.331, 1001.824 527.763, 1001.445 525.639 L 1000.755 521.779 1006.128 522.639 C 1017.940 524.532, 1033.711 522.378, 1041.788 517.770 C 1052.049 511.916, 1061.350 502.522, 1065.323 494 C 1073.449 476.572, 1072.702 457.126, 1063.289 441.044 C 1057.795 431.658, 1046.511 422.575, 1034.500 417.871 C 1028.722 415.608, 1011.134 414.520, 1004.201 415.997 M 366.750 446.080 C 365.218 446.973, 365 448.810, 365 460.859 C 365 470.310, 365.393 475.155, 366.254 476.332 C 367.373 477.863, 369.493 478.018, 386.004 477.774 L 404.500 477.500 404.775 461.880 L 405.049 446.260 401.900 445.630 C 396.787 444.607, 368.660 444.968, 366.750 446.080 M 135 450.959 C 134.175 451.515, 131.839 451.976, 129.809 451.985 C 127.779 451.993, 125.840 452.450, 125.500 453 C 125.160 453.550, 123.874 454, 122.641 454 C 121.408 454, 119.972 454.378, 119.450 454.840 C 118.927 455.302, 116.925 456.292, 115 457.041 C 109.213 459.292, 101.807 464.501, 96.349 470.160 C 91.455 475.234, 84 485.882, 84 487.798 C 84 488.290, 83.266 490.165, 82.368 491.964 C 78.156 500.407, 75.568 520.098, 77.041 532.500 C 79.832 556.008, 87.394 571.065, 102.650 583.492 C 113.870 592.632, 129.184 598, 144.039 598 C 150.443 598, 151.126 598.200, 151.928 600.309 C 153.159 603.548, 164.106 617.883, 168.151 621.554 C 173.039 625.990, 184.986 634, 186.714 634 C 188.089 634, 202.835 624.184, 205.828 621.277 C 206.558 620.567, 208.021 619.524, 209.078 618.958 C 212.353 617.206, 211.240 615.182, 204.746 611.081 C 201.306 608.909, 195.205 603.753, 191.187 599.625 C 184.054 592.295, 183.927 592.075, 185.784 590.309 C 186.831 589.314, 188.995 587.725, 190.593 586.779 C 195.230 584.033, 197.241 582.636, 199.636 580.500 C 202.723 577.745, 211.999 565.054, 213.156 562 C 213.677 560.625, 214.916 557.700, 215.909 555.500 C 220.049 546.328, 221.417 538.342, 221.392 523.500 C 221.370 510.849, 220.709 505.342, 218.335 498.047 C 216.904 493.651, 212.776 484.795, 209.953 480.067 C 204.774 471.395, 193.384 461.507, 183.500 457.103 C 181.850 456.368, 179.719 455.369, 178.764 454.883 C 177.809 454.397, 176.148 454, 175.073 454 C 173.998 454, 172.869 453.598, 172.565 453.106 C 171.717 451.733, 164.809 450.906, 150 450.405 C 141.769 450.126, 135.915 450.342, 135 450.959 M 532.225 467.750 L 532.500 483.500 563.826 483.764 L 595.152 484.029 592.326 487.856 C 590.772 489.961, 588.484 492.992, 587.241 494.591 C 585.999 496.191, 582.919 500.200, 580.397 503.500 C 577.874 506.800, 574.752 510.850, 573.457 512.500 C 572.163 514.150, 568.718 518.696, 565.802 522.601 C 550.864 542.607, 539.446 557.641, 538.292 558.821 C 537.581 559.548, 537 560.453, 537 560.832 C 537 561.210, 535.863 562.747, 534.472 564.246 C 531.983 566.931, 531.949 567.188, 532.222 581.236 L 532.500 595.500 588 595.500 L 643.500 595.500 643.778 581.136 C 643.967 571.397, 643.686 566.326, 642.906 565.386 C 641.970 564.259, 635.915 564, 610.437 564 C 593.211 564, 578.883 563.620, 578.596 563.155 C 578.113 562.373, 582.233 556.745, 609.094 521.500 C 614.543 514.350, 623.726 502.281, 629.501 494.679 L 640 480.859 640 466.429 L 640 452 585.975 452 L 531.949 452 532.225 467.750 M 137.500 483.852 C 126.104 487.755, 119.605 497.813, 116.993 515.594 C 115.196 527.830, 117.879 542.932, 123.591 552.725 C 126.293 557.359, 134.242 564, 137.085 564 C 138.073 564, 139.160 564.450, 139.500 565 C 139.840 565.550, 144.115 566, 149 566 C 153.885 566, 158.160 565.550, 158.500 565 C 158.840 564.450, 160.022 564, 161.126 564 C 163.196 564, 169.103 560.053, 172.335 556.511 C 177.898 550.413, 181.343 537.345, 181.182 522.957 C 180.996 506.406, 177.779 496.800, 170.021 489.634 C 162.138 482.352, 148.805 479.981, 137.500 483.852 M 696.500 491 C 695.400 491.473, 693.064 491.891, 691.309 491.930 C 689.554 491.968, 687.840 492.450, 687.500 493 C 687.160 493.550, 686.121 493.993, 685.191 493.984 C 681.821 493.953, 672.592 499.625, 667.066 505.123 C 661.092 511.067, 655.296 520.744, 653.686 527.466 C 651.828 535.221, 651.745 551.644, 653.528 558.821 C 659.708 583.696, 679.778 598, 708.500 598 C 720.640 598, 727.597 596.441, 737.773 591.442 C 750.974 584.955, 758.949 574.686, 762.968 558.997 C 764.315 553.739, 763.865 531.336, 762.303 525.870 C 760.010 517.850, 755.703 510.962, 749.108 504.769 C 742.198 498.281, 739.377 496.571, 730.500 493.487 C 721.558 490.380, 701.377 488.904, 696.500 491 M 839.320 491.348 C 837.020 491.982, 834.808 492.837, 834.403 493.250 C 833.998 493.663, 833.054 494, 832.305 494 C 831.556 494, 828.043 496.250, 824.500 499 C 820.957 501.750, 817.819 504, 817.529 504 C 817.238 504, 817 502.717, 817 501.149 C 817 499.581, 816.502 496.871, 815.894 495.126 L 814.788 491.954 797.822 492.227 L 780.857 492.500 780.963 543.462 C 781.043 582.278, 781.358 594.608, 782.284 595.197 C 783.715 596.106, 815.104 596.281, 817.418 595.393 C 818.815 594.857, 819 591.066, 819 563.043 L 819 531.300 821.980 527.186 C 826.367 521.130, 829.116 519.696, 836.540 519.591 C 842.163 519.511, 843.262 519.816, 845.542 522.093 C 846.971 523.518, 848.547 526.443, 849.046 528.593 C 849.544 530.742, 849.963 546.554, 849.976 563.731 L 850 594.962 852.250 595.517 C 853.487 595.822, 861.700 595.943, 870.500 595.786 L 886.500 595.500 886.494 558.500 C 886.490 535.528, 886.078 519.771, 885.408 516.939 C 883.883 510.495, 880.111 503.355, 875.996 499.122 C 868.439 491.349, 851.979 487.860, 839.320 491.348 M 241 527.634 C 241 549.923, 241.404 564.809, 242.079 567.384 C 244.721 577.459, 245.481 579.659, 247.186 582.154 C 248.184 583.614, 249 585.137, 249 585.538 C 249 587.827, 258.215 593.692, 266.157 596.458 C 277.117 600.275, 295.506 596.817, 302.962 589.537 C 307.791 584.822, 309 584.993, 309 590.393 C 309 593.476, 309.472 594.967, 310.582 595.393 C 312.934 596.296, 342.297 596.098, 343.759 595.170 C 344.750 594.541, 344.963 583.521, 344.759 543.435 L 344.500 492.500 326.500 492.500 L 308.500 492.500 307.925 524 C 307.609 541.325, 306.985 556.784, 306.539 558.353 C 305.385 562.410, 299.710 567.707, 295.007 569.116 C 290.109 570.584, 284.302 569.014, 280.785 565.272 C 278.512 562.854, 278.499 562.666, 278.228 529.671 C 278.079 511.427, 277.733 495.488, 277.459 494.250 C 276.966 492.019, 276.814 492, 258.981 492 L 241 492 241 527.634 M 367.458 493.250 C 367.195 493.938, 367.097 517.225, 367.240 545 L 367.500 595.500 385 595.500 L 402.500 595.500 402.759 543.750 L 403.018 492 385.478 492 C 372.367 492, 367.816 492.316, 367.458 493.250 M 423.677 492.657 C 423.305 493.029, 423 498.828, 423 505.544 C 423 514.484, 423.356 518.051, 424.330 518.859 C 425.193 519.575, 433.801 520.057, 448.883 520.231 L 472.107 520.500 465.915 527 C 443.744 550.272, 431.184 563.653, 426.721 568.753 L 423 573.006 423 583.896 C 423 592.904, 423.273 594.891, 424.582 595.393 C 426.648 596.186, 513.352 596.186, 515.418 595.393 C 516.741 594.885, 517 592.789, 517 582.593 C 517 574.443, 516.602 570.002, 515.800 569.200 C 514.934 568.334, 507.961 568, 490.727 568 C 470.638 568, 466.905 567.775, 467.177 566.583 C 467.486 565.226, 472.425 559.888, 495.938 535.500 C 501.771 529.450, 508.461 522.357, 510.804 519.737 L 515.065 514.974 514.783 503.737 L 514.500 492.500 469.427 492.240 C 444.636 492.097, 424.049 492.284, 423.677 492.657 M 948.324 516.612 C 944.381 518.556, 940.277 524.595, 939.834 529.102 L 939.500 532.500 955.500 532.500 L 971.500 532.500 971.238 529 C 970.833 523.590, 969.268 520.742, 965.054 517.750 C 960.522 514.533, 953.508 514.055, 948.324 516.612 M 698.859 520.158 C 691.426 524.468, 687.776 537.095, 689.988 550.853 C 692.333 565.438, 696.816 570, 708.806 570 C 715.199 570, 715.910 569.769, 719.820 566.422 C 722.119 564.454, 724 562.069, 724 561.122 C 724 560.175, 724.395 558.972, 724.879 558.450 C 725.362 557.928, 726.211 554.333, 726.765 550.462 C 728.656 537.259, 724.762 524.265, 717.605 519.901 C 713.201 517.215, 703.709 517.345, 698.859 520.158 M 414 545.666 L 414 567.333 421.750 559.026 C 426.012 554.457, 429.817 550.185, 430.204 549.531 C 430.591 548.877, 430.074 545.452, 429.054 541.921 C 428.035 538.389, 426.936 534.320, 426.613 532.878 C 426.183 530.956, 425.214 530.093, 422.987 529.647 C 421.316 529.313, 418.815 527.906, 417.429 526.520 C 416.043 525.134, 414.705 524, 414.455 524 C 414.205 524, 414 533.750, 414 545.666 M 702.736 530.280 C 699.789 534.778, 698.554 543.430, 699.962 549.720 C 701.806 557.959, 703.410 560, 708.044 560 C 712.651 560, 714.568 558.268, 716.120 552.705 C 718.582 543.879, 717.401 534.548, 713.217 529.750 C 710.898 527.092, 704.617 527.410, 702.736 530.280 M 1072 581.583 C 1055.752 594.943, 1047.945 616.388, 1052.116 636.201 C 1054.036 645.323, 1060.216 656.881, 1066.617 663.323 C 1076.586 673.354, 1076 674.120, 1076 651.059 C 1076 632.821, 1075.823 630.758, 1074.004 627.774 C 1071.447 623.580, 1071.456 617.756, 1074.027 612.443 C 1075.831 608.718, 1076.024 606.624, 1075.777 593.480 L 1075.500 578.705 1072 581.583 M 67.520 590.287 C 65.332 591.526, 62.589 594.237, 61.426 596.311 C 59.586 599.592, 59.145 599.880, 58.030 598.536 C 56.885 597.157, 56.362 597.223, 53.124 599.150 C 46.122 603.320, 45.995 602.311, 55.623 618.986 C 60.463 627.367, 64.962 634.432, 65.622 634.685 C 67.024 635.223, 75 630.190, 75 628.768 C 75 628.237, 72.525 623.596, 69.500 618.456 C 66.475 613.317, 64 608.166, 64 607.010 C 64 604.531, 68.214 600, 70.520 600 C 73.927 600, 76.083 602.346, 81.553 612.007 C 84.665 617.503, 87.646 622, 88.177 622 C 89.553 622, 98 616.948, 98 616.125 C 98 615.748, 94.924 610.278, 91.164 603.970 C 81.839 588.324, 76.471 585.217, 67.520 590.287 M 24.073 595.635 C 22.933 597.084, 22 599.109, 22 600.135 C 22 602.806, 25.565 606, 28.545 606 C 31.107 606, 36 602.048, 36 599.980 C 36 598.439, 33.929 594.652, 32.600 593.765 C 30.173 592.145, 26.119 593.034, 24.073 595.635 M 34.754 609.790 C 32.144 611.280, 30.006 612.823, 30.004 613.217 C 29.998 614.233, 45.998 642.216, 47.523 643.856 C 48.575 644.988, 49.543 644.766, 53.391 642.511 C 55.926 641.025, 58 639.378, 58 638.850 C 58 637.865, 43.115 611.860, 40.793 608.790 C 39.591 607.200, 39.166 607.271, 34.754 609.790 M 277.040 656.615 C 277.018 657.228, 277.900 658.874, 279 660.273 C 280.100 661.671, 281 663.307, 281 663.908 C 281 664.508, 281.450 665, 282 665 C 283.593 665, 283.157 661.997, 281.470 661.350 C 280.628 661.027, 279.296 659.579, 278.510 658.131 C 277.723 656.684, 277.062 656.002, 277.040 656.615 M 941 659.968 C 911.431 665.656, 891.294 694.550, 896.427 723.927 C 899.070 739.053, 906.789 751.289, 919.178 759.989 C 945.254 778.301, 981.315 770.938, 998.624 743.769 C 1002.102 738.310, 1005.872 726.270, 1006.574 718.381 C 1008.697 694.536, 992.430 670.326, 968.675 661.977 C 962.189 659.697, 947.828 658.655, 941 659.968 M 132.220 709.447 C 111.875 716.035, 97.933 732.381, 94.304 753.900 C 92.858 762.479, 92.865 763.905, 94.397 771.699 C 96.773 783.792, 101.661 792.907, 110.388 801.517 C 114.300 805.377, 119.829 809.774, 122.675 811.289 C 128.911 814.608, 141.624 818, 147.828 818 C 166.456 818, 184.497 808.743, 194.554 794.024 C 206.609 776.381, 207.921 756.105, 198.258 736.789 C 186.501 713.289, 157.472 701.270, 132.220 709.447 M 145.606 733.523 C 142.914 734.262, 138.261 736.554, 135.267 738.616 C 126.523 744.638, 122.107 751.733, 121.255 761.125 C 120.522 769.211, 123.968 776.268, 130.716 780.500 C 135.160 783.287, 136.174 783.500, 145 783.500 C 153.830 783.500, 154.917 783.272, 160.412 780.258 C 165.821 777.293, 166.643 777.112, 170.066 778.138 C 173.836 779.267, 181 778.594, 181 777.110 C 181 776.670, 180.048 775.453, 178.885 774.405 C 175.271 771.149, 174.837 768.487, 177.020 762.950 C 179.720 756.099, 179.562 750.043, 176.528 744.055 C 171.388 733.913, 159.247 729.777, 145.606 733.523 M 154.649 744.471 C 154.077 745.963, 156.371 749, 158.071 749 C 159.662 749, 159.087 744.247, 157.418 743.607 C 155.293 742.791, 155.294 742.791, 154.649 744.471 M 158.410 750.146 C 157.525 751.577, 162.022 760, 163.670 760 C 166.132 760, 166.087 757.824, 163.535 753.470 C 160.856 748.899, 159.660 748.123, 158.410 750.146 M 140.250 754.139 C 136.262 756.365, 132.987 758.706, 132.972 759.343 C 132.907 762.010, 139.563 772.983, 141.250 772.992 C 143.709 773.003, 143.429 770.589, 140.366 765.362 C 138.671 762.469, 138.077 760.523, 138.699 759.901 C 140.361 758.239, 142.555 759.905, 144.806 764.538 C 146.905 768.857, 149.384 770.318, 150.259 767.750 C 150.494 767.063, 149.666 764.876, 148.419 762.890 C 145.488 758.223, 145.058 755.664, 147.133 755.235 C 148.203 755.015, 149.837 756.640, 151.874 759.949 C 155.030 765.079, 156.637 766.109, 157.594 763.616 C 158.116 762.256, 152.606 752.203, 150.550 750.765 C 148.843 749.571, 147.856 749.894, 140.250 754.139 M 384.244 775.109 C 379.595 775.884, 371.696 779.146, 363.926 783.499 C 361.086 785.089, 353.785 792.231, 350.203 796.921 C 347.219 800.830, 342.199 811.934, 341.247 816.735 C 340.836 818.806, 340.555 824.775, 340.623 830 C 340.850 847.583, 348.526 861.724, 364 873.065 C 368.691 876.504, 376.818 879.548, 386.357 881.441 C 396.603 883.474, 399 883.447, 399 881.300 C 399 879.978, 399.267 879.867, 400.200 880.800 C 401.513 882.113, 407 882.465, 407 881.237 C 407 880.817, 409.255 879.938, 412.011 879.283 C 414.766 878.628, 419.604 876.396, 422.761 874.323 C 436.379 865.377, 444.266 854.004, 447.412 838.773 C 449.282 829.717, 449.378 825.960, 447.923 818.799 C 445.818 808.450, 443.716 803.839, 436.689 794.167 C 432.371 788.223, 419.338 779.126, 412.500 777.282 C 399.482 773.771, 394.554 773.392, 384.244 775.109 M 123 778.459 C 123 783.354, 131.359 790, 137.514 790 C 139.332 790, 140.596 790.883, 141.797 792.994 C 142.733 794.640, 143.853 795.990, 144.284 795.994 C 144.715 795.997, 146.004 794.412, 147.149 792.471 C 148.295 790.531, 150.417 788.321, 151.866 787.561 C 154.285 786.293, 153.805 786.188, 146 786.278 C 136.304 786.391, 131.453 784.788, 126.250 779.753 C 123.552 777.142, 123 776.922, 123 778.459 M 0 852.341 L 0 906.683 4.250 905.983 C 19.325 903.499, 35.120 891.651, 42.280 877.457 C 47.066 867.968, 48.274 861.774, 47.820 849.039 C 47.418 837.759, 47.274 837.132, 43.173 828.736 C 38.409 818.985, 31.648 811.296, 23 805.796 C 17.045 802.008, 6.504 798, 2.496 798 L 0 798 0 852.341 M 1027.500 816.427 C 1019.438 818.713, 1017.017 819.835, 1009.801 824.633 C 992.699 836.001, 983.151 857.243, 986.040 877.491 C 987.989 891.153, 992.359 899.745, 1002.747 910.335 C 1020.322 928.254, 1051.118 930.904, 1072.250 916.317 L 1076 913.728 1076 901.757 C 1076 890.975, 1075.834 889.850, 1074.326 890.428 C 1072.761 891.029, 1066.790 894.419, 1042.759 908.352 C 1032.694 914.187, 1031.140 914.680, 1028.037 913.020 C 1026.551 912.224, 1016.324 895.439, 1004.264 874 C 1003.181 872.075, 1001.330 868.925, 1000.151 867 C 997.550 862.753, 997.374 857.840, 999.750 855.828 C 1000.712 855.013, 1012.171 848.161, 1025.213 840.603 C 1042.959 830.319, 1049.620 826.941, 1051.683 827.180 C 1054.888 827.552, 1056.297 829.478, 1067.471 848.750 C 1071.697 856.038, 1075.344 862, 1075.577 862 C 1075.810 862, 1076 854.119, 1076 844.488 L 1076 826.975 1070.422 823.407 C 1061.622 817.778, 1054.946 815.826, 1043 815.392 C 1035.893 815.133, 1030.884 815.468, 1027.500 816.427 M 430.392 824.573 C 430.027 826.027, 430.237 827.637, 430.873 828.273 C 431.709 829.109, 432 828.444, 432 825.700 C 432 821.391, 431.312 820.909, 430.392 824.573 M 380.429 839.023 C 380.429 840.124, 380.895 840.866, 381.464 840.672 C 382.034 840.479, 383.512 841.686, 384.750 843.355 C 386.065 845.128, 387 845.766, 387 844.890 C 387 844.066, 385.521 841.959, 383.714 840.208 C 380.823 837.405, 380.429 837.263, 380.429 839.023 M 1031.748 844.427 C 1020.770 848.344, 1013.681 858.593, 1013.672 870.558 C 1013.668 876.453, 1014.142 878.491, 1016.551 882.917 C 1027.483 903.001, 1055.648 902.726, 1065.574 882.438 C 1074.412 864.373, 1061.102 842.889, 1041.167 843.044 C 1038.050 843.068, 1033.812 843.690, 1031.748 844.427 M 1055 857.694 C 1051.975 857.862, 1048.033 858.245, 1046.240 858.546 C 1043.358 859.031, 1043.103 859.323, 1044.036 861.068 C 1045.444 863.697, 1044.901 864.362, 1038.524 867.816 L 1033.085 870.761 1031.534 868.631 C 1030.048 866.590, 1029.931 866.577, 1028.741 868.332 C 1028.059 869.340, 1025.575 872.837, 1023.223 876.103 C 1019.682 881.020, 1019.223 882.148, 1020.552 882.658 C 1022.104 883.254, 1038.043 882.290, 1038.777 881.557 C 1038.976 881.358, 1038.562 880.271, 1037.857 879.143 C 1037.152 878.014, 1036.784 876.919, 1037.038 876.709 C 1038.003 875.911, 1048.767 870, 1049.255 870 C 1049.536 870, 1050.002 870.900, 1050.290 872 C 1050.577 873.100, 1051.192 873.986, 1051.656 873.968 C 1052.609 873.932, 1061.734 861.003, 1062.198 859.030 C 1062.572 857.443, 1061.872 857.313, 1055 857.694 M 232.500 862.642 C 206.914 866.508, 187.420 885.854, 184.029 910.743 C 183.412 915.276, 183.180 920.676, 183.514 922.743 C 186.037 938.363, 190.485 947.692, 199.897 957.103 C 217.292 974.499, 242.795 978.483, 264.428 967.184 C 280.867 958.598, 291.874 942.793, 293.980 924.750 C 296.714 901.331, 284.748 878.897, 264 868.544 C 260.425 866.760, 255.475 864.806, 253 864.201 C 247.501 862.858, 236.572 862.027, 232.500 862.642 M 645.646 867.178 C 644.650 867.736, 642.398 867.922, 640.642 867.593 C 637.357 866.976, 635.195 868.444, 633.717 872.294 C 633.357 873.232, 632.374 874, 631.531 874 C 630.689 874, 630 874.675, 630 875.500 C 630 876.325, 629.550 877, 629 877 C 628.450 877, 628 877.675, 628 878.500 C 628 879.361, 627.098 880, 625.883 880 C 624.259 880, 623.888 880.465, 624.290 882 C 624.634 883.316, 624.320 884, 623.374 884 C 622.583 884, 621.529 885.013, 621.031 886.250 C 620.534 887.487, 620.098 887.938, 620.063 887.250 C 620.029 886.563, 619.530 886, 618.956 886 C 618.382 886, 618.003 886.563, 618.114 887.250 C 618.443 889.290, 616.891 892, 615.393 892 C 614.518 892, 614 893.094, 614 894.941 C 614 897.776, 615.383 899.813, 616.251 898.256 C 616.483 897.840, 616.521 898.098, 616.337 898.829 C 615.770 901.076, 617.150 905.025, 618.261 904.339 C 618.851 903.974, 619.014 904.168, 618.634 904.783 C 617.812 906.113, 622.827 919, 624.165 919 C 624.689 919, 624.849 919.435, 624.521 919.966 C 624.193 920.497, 624.897 922.859, 626.085 925.216 C 628.768 930.535, 628.601 930.366, 630.183 929.379 C 630.908 928.927, 632.396 928.419, 633.492 928.248 C 634.587 928.078, 638.862 926.629, 642.992 925.027 C 647.121 923.426, 651.931 921.836, 653.681 921.494 C 655.430 921.151, 657.398 920.225, 658.053 919.436 C 658.709 918.646, 660.442 918, 661.905 918 C 663.760 918, 666.599 916.154, 671.283 911.904 C 674.977 908.551, 678 905.287, 678 904.650 C 678 904.013, 675.825 900.793, 673.166 897.496 C 670.508 894.198, 663.988 886.017, 658.677 879.316 C 653.367 872.615, 648.670 866.914, 648.240 866.648 C 647.809 866.382, 646.642 866.621, 645.646 867.178 M 638 880.559 C 638 881.416, 637.550 881.840, 637 881.500 C 636.450 881.160, 636 881.312, 636 881.837 C 636 882.362, 633.862 884.164, 631.248 885.841 C 628.634 887.518, 625.709 890.222, 624.748 891.849 C 622.822 895.109, 622.373 903.495, 624.068 904.542 C 624.656 904.905, 624.886 905.855, 624.580 906.653 C 624.273 907.451, 624.401 907.870, 624.864 907.584 C 625.327 907.298, 626.559 907.710, 627.603 908.500 C 628.646 909.290, 630.476 909.951, 631.668 909.968 C 634.965 910.017, 637 911.053, 637 912.684 C 637 913.773, 636.030 914.069, 633.250 913.827 C 629.942 913.539, 629.460 913.783, 629.161 915.900 C 628.974 917.219, 629.398 919.375, 630.102 920.690 C 631.220 922.779, 632.013 923.053, 636.378 922.853 C 640.686 922.657, 641.900 922.100, 645.187 918.813 C 649.470 914.530, 649.871 912.112, 647.151 906.985 C 646.133 905.068, 645.484 902.973, 645.708 902.329 C 645.962 901.597, 645.385 901.348, 644.170 901.666 C 643.101 901.945, 641.923 901.685, 641.554 901.087 C 641.184 900.489, 641.471 899.993, 642.191 899.985 C 643.155 899.973, 643.112 899.724, 642.026 899.037 C 641.066 898.430, 640.309 898.500, 639.853 899.238 C 639.349 900.053, 638.656 899.968, 637.384 898.936 C 636.279 898.038, 635.898 897.969, 636.367 898.750 C 637.404 900.475, 634.554 900.373, 633.110 898.633 C 632.246 897.592, 632.342 896.961, 633.512 895.990 C 634.357 895.289, 635.316 894.983, 635.643 895.310 C 636.620 896.287, 639.270 893.031, 639.410 890.682 C 639.482 889.482, 638.969 887.905, 638.270 887.179 C 636.574 885.414, 636.645 882.927, 638.372 883.589 C 639.383 883.977, 639.616 883.441, 639.256 881.558 C 638.712 878.715, 638 878.149, 638 880.559 M 232.500 891.956 L 229.500 892.676 232.243 893.444 C 233.752 893.867, 234.738 894.615, 234.434 895.107 C 233.514 896.596, 236.225 896.106, 238.051 894.454 C 239.618 893.036, 239.818 893.137, 240.455 895.678 C 240.879 897.366, 240.730 898.590, 240.075 898.808 C 239.484 899.005, 239 899.606, 239 900.142 C 239 900.679, 239.359 900.896, 239.798 900.625 C 240.237 900.354, 241.245 900.534, 242.039 901.024 C 244.312 902.429, 241.683 904.388, 238.573 903.608 C 236.875 903.182, 236 902.277, 236 900.950 C 236 898.812, 234.344 897.825, 230.106 897.437 C 228.673 897.306, 227.107 897.154, 226.628 897.099 C 226.148 897.045, 226.315 896.325, 227 895.500 C 228.021 894.270, 227.948 894, 226.591 894 C 225.681 894, 224.678 894.675, 224.362 895.500 C 224.045 896.325, 223.238 897, 222.567 897 C 221.897 897, 220.339 898.075, 219.105 899.388 L 216.861 901.777 220.846 902.157 C 223.038 902.366, 224.618 902.191, 224.357 901.768 C 224.096 901.346, 222.934 901, 221.774 901 C 220.615 901, 219.954 900.712, 220.306 900.361 C 221.173 899.493, 229.002 899.328, 229.001 900.177 C 229 900.549, 229.787 901.059, 230.750 901.311 C 231.713 901.562, 230.925 901.840, 229 901.928 L 225.500 902.088 229.500 903.529 C 231.700 904.321, 236.019 904.977, 239.098 904.985 L 244.696 905 243.727 899.250 C 243.195 896.087, 242.308 892.938, 241.757 892.250 C 240.681 890.907, 237.318 890.801, 232.500 891.956 M 212.872 906.654 C 210.707 909.263, 211.049 923.565, 213.402 928.782 C 214.448 931.102, 215.830 933, 216.474 933 C 217.655 933, 228 910.262, 228 907.668 C 228 906.765, 226.361 906.047, 223.360 905.636 C 216.286 904.666, 214.367 904.852, 212.872 906.654 M 870.372 907.897 C 867.001 908.929, 862.951 910.476, 861.372 911.335 C 859.792 912.194, 857.480 913.361, 856.234 913.929 C 851.659 916.016, 840.553 928.415, 837.351 935.012 C 830.863 948.377, 829.603 959.507, 832.897 974.332 C 836.520 990.642, 852.206 1006.872, 869.500 1012.206 C 878.005 1014.829, 892.104 1015.006, 900.194 1012.590 C 930.727 1003.475, 947.181 971.882, 936.958 942 C 934.645 935.238, 928.271 925.366, 923.352 920.926 C 919.593 917.533, 910.229 911, 909.125 911 C 908.646 911, 906.076 910.036, 903.413 908.859 C 896.438 905.773, 878.965 905.265, 870.372 907.897 M 653.613 912.435 C 653.944 913.296, 653.716 914, 653.107 914 C 650.977 914, 652.022 915.771, 654.423 916.230 C 656.248 916.579, 656.980 916.186, 657.384 914.640 C 658.007 912.256, 658.137 912.444, 655.256 911.559 C 653.481 911.013, 653.138 911.196, 653.613 912.435 M 254.733 923.487 C 243.446 930.087, 241 931.776, 241 932.966 C 241 933.362, 243.270 935.601, 246.045 937.941 C 249.824 941.128, 251.660 942.051, 253.364 941.623 C 256.862 940.746, 262.986 934.226, 265.614 928.581 C 268.191 923.047, 268.795 916.939, 266.750 917.095 C 266.063 917.148, 260.655 920.024, 254.733 923.487 M 221.487 929.624 C 220.119 932.718, 219 936.103, 219 937.146 C 219 939.729, 226.924 944.616, 233.498 946.087 C 238.962 947.310, 246.500 946.357, 246.500 944.443 C 246.500 943.308, 225.983 924, 224.778 924 C 224.336 924, 222.855 926.531, 221.487 929.624 M 492 957.683 C 485.445 958.759, 481.282 962.232, 478.301 969.111 C 477.253 971.530, 476.805 971.688, 472.225 971.248 C 463.561 970.415, 457.481 974.785, 455.124 983.541 C 452.714 992.489, 458.223 1000.443, 470.975 1006.427 C 478.007 1009.727, 480.346 1010.318, 487.821 1010.684 C 493.816 1010.977, 497.264 1010.701, 498.970 1009.790 C 504.702 1006.729, 509.950 994.540, 510.720 982.500 C 511.555 969.445, 508.585 962.533, 500.579 958.896 C 498.335 957.878, 496.050 957.095, 495.500 957.158 C 494.950 957.221, 493.375 957.457, 492 957.683 M 722.500 995.647 C 700.326 998.963, 682.221 1015.392, 676.928 1037 C 674.886 1045.337, 675.254 1057.281, 677.806 1065.500 C 679.001 1069.350, 680.322 1073.018, 680.740 1073.651 C 681.650 1075.029, 718.043 1075.676, 754.828 1074.968 L 779.157 1074.500 781.657 1067.500 C 784.855 1058.549, 785.244 1043.260, 782.485 1034.955 C 774.561 1011.098, 756.555 996.749, 733.071 995.576 C 728.907 995.368, 724.150 995.400, 722.500 995.647 M 319.076 1019.524 C 302.934 1022.446, 287.797 1033.342, 280.721 1047.135 C 276.334 1055.685, 274.029 1063.585, 274.012 1070.123 L 274 1074.746 302.750 1075.309 C 318.563 1075.618, 338.700 1075.752, 347.500 1075.605 C 356.300 1075.459, 368.113 1075.263, 373.750 1075.170 L 384 1075 384 1071.049 C 384 1057.981, 376.194 1041.676, 365.301 1031.991 C 358.857 1026.262, 347.898 1021.171, 338.342 1019.467 C 329.003 1017.803, 328.579 1017.804, 319.076 1019.524 M 964.317 1061.503 C 956.796 1063.138, 950.068 1066.011, 943.752 1070.286 C 935.421 1075.925, 936.241 1076.157, 962.750 1075.639 C 975.813 1075.383, 987.175 1075.131, 988 1075.079 C 988.825 1075.027, 991.387 1075.257, 993.694 1075.592 C 996.001 1075.926, 1001.090 1075.659, 1005.003 1075 L 1012.117 1073.800 1008.808 1071.348 C 1000.084 1064.883, 985.275 1059.955, 975 1060.097 C 972.525 1060.131, 967.718 1060.764, 964.317 1061.503" stroke="none" fill="#b9bed7" fill-rule="evenodd"/><path d="M 70.065 1.089 C 40.931 6.803, 15.815 27.953, 5.452 55.500 C -0.209 70.544, 0 63.470, 0 240.467 L 0 403.758 7.845 411.629 C 20.246 424.070, 25.931 438.846, 24.532 455 C 23.249 469.816, 17.479 481.581, 6.423 491.923 L -0 497.932 -0 647.966 L 0 798 2.496 798 C 6.504 798, 17.045 802.008, 23 805.796 C 31.648 811.296, 38.409 818.985, 43.173 828.736 C 47.274 837.132, 47.418 837.759, 47.820 849.039 C 48.140 858.015, 47.845 862.023, 46.529 866.547 C 42.853 879.195, 35.977 889.083, 25.618 896.621 C 19.539 901.044, 8.889 905.656, 3.500 906.198 L 0.500 906.500 0.503 956.500 L 0.506 1006.500 3.729 1016 C 12.413 1041.596, 31.223 1061.415, 55.500 1070.548 C 70.316 1076.123, 67.624 1076.019, 190.838 1075.778 C 253.352 1075.656, 297.637 1075.419, 289.250 1075.252 L 274 1074.948 274.012 1070.224 C 274.029 1063.589, 276.313 1055.726, 280.721 1047.135 C 288.071 1032.809, 302.932 1022.392, 320.296 1019.396 C 328.006 1018.065, 329.980 1018.063, 337.582 1019.374 C 347.901 1021.155, 358.581 1026.016, 365.301 1031.991 C 376.181 1041.664, 384 1057.982, 384 1071.014 L 384 1074.930 373.750 1075.254 C 368.113 1075.432, 441.125 1075.574, 536 1075.570 C 630.875 1075.565, 702.340 1075.422, 694.811 1075.253 L 681.123 1074.944 679.084 1069.496 C 672.426 1051.699, 674.984 1032.638, 686.067 1017.466 C 690.693 1011.132, 695.244 1007.125, 702.915 1002.629 C 711.034 997.871, 717.834 995.947, 728 995.531 C 753.405 994.494, 773.994 1009.391, 782.485 1034.955 C 785.244 1043.260, 784.855 1058.549, 781.657 1067.500 L 779.157 1074.500 754.993 1074.669 C 741.702 1074.762, 730.567 1075.100, 730.248 1075.419 C 729.928 1075.739, 776.767 1076, 834.333 1076 C 917.399 1076, 939 1075.742, 939.002 1074.750 C 939.005 1072.969, 947.647 1067.314, 954.749 1064.445 C 971.828 1057.547, 990.664 1059.444, 1006 1069.608 C 1011.336 1073.144, 1011.634 1073.217, 1016 1072.074 C 1043.324 1064.915, 1069.350 1035.988, 1074.324 1007.250 C 1074.919 1003.812, 1075.765 1001, 1076.203 1001 C 1076.641 1001, 1076.932 979.513, 1076.850 953.250 C 1076.767 926.987, 1076.430 907.377, 1076.100 909.671 C 1075.389 914.611, 1073.022 916.755, 1063.518 921.064 C 1035.374 933.826, 1001.209 920.008, 989.469 891.117 C 979.782 867.276, 988.538 838.768, 1009.912 824.559 C 1021.084 817.132, 1026.330 815.624, 1041 815.624 C 1055.070 815.624, 1060.475 817.044, 1070.283 823.318 L 1075.723 826.798 1076.361 800.149 C 1077.408 756.380, 1077.021 74, 1075.949 74 C 1075.427 74, 1075 72.880, 1075 71.512 C 1075 70.144, 1073.661 64.856, 1072.024 59.762 C 1062.390 29.781, 1037.063 7.342, 1006.162 1.409 C 1000.159 0.256, 980.925 0, 900.412 0 L 802 0 801.938 2.250 C 801.388 22.154, 789.986 41.198, 773.153 50.330 C 746.100 65.005, 711.123 54.125, 698.357 27.063 C 696.394 22.904, 694.423 18.777, 693.976 17.894 C 693.528 17.010, 692.843 12.623, 692.452 8.144 L 691.742 0 543.441 0 L 395.140 0 397.726 6.250 C 401.208 14.667, 402.106 31.685, 399.534 40.531 C 395.116 55.727, 384.020 69.308, 370.676 75.852 C 340.064 90.863, 302.785 74.928, 292.749 42.542 C 289.561 32.254, 289.819 18.176, 293.381 8.075 C 294.822 3.991, 296 0.504, 296 0.325 C 296 -0.447, 74.069 0.304, 70.065 1.089 M 978.124 14.578 C 969.635 16.861, 959.334 22.826, 953.080 29.080 C 931.624 50.536, 931.552 85.763, 952.921 107.056 C 960.045 114.155, 966.121 117.969, 975.500 121.229 C 983.645 124.060, 1000.081 124.245, 1008 121.596 C 1026.430 115.429, 1038.991 103.051, 1045.651 84.492 C 1048.425 76.761, 1048.183 59.545, 1045.178 50.810 C 1039.151 33.289, 1024.025 19.095, 1006.540 14.549 C 999.173 12.634, 985.297 12.648, 978.124 14.578 M 178.601 61.642 C 160.774 65.464, 145.964 77.950, 138.776 95.218 C 134.818 104.729, 133.775 120.252, 136.468 129.577 C 143.016 152.245, 160.373 167.402, 183.974 171.064 C 199.802 173.520, 218.436 166.642, 230.445 153.911 C 239.911 143.877, 244.365 134.086, 245.584 120.636 C 248.093 92.946, 228.923 67.230, 201.500 61.498 C 192.880 59.696, 187.520 59.730, 178.601 61.642 M 602.020 61.476 C 601.148 62.527, 602.167 65.052, 606.535 72.667 C 612.851 83.674, 614.320 85.539, 615.904 84.559 C 617.715 83.440, 617.158 80.642, 614.190 75.946 C 612.644 73.501, 610.112 69.164, 608.563 66.308 C 605.496 60.657, 603.763 59.376, 602.020 61.476 M 588 64.452 C 588 65.250, 591.515 71.905, 595.812 79.241 C 600.109 86.576, 603.919 93.348, 604.281 94.289 C 605.105 96.437, 609 96.570, 609 94.450 C 609 92.460, 607.287 89.142, 598.829 74.750 C 593.739 66.089, 591.408 63, 589.962 63 C 588.883 63, 588 63.653, 588 64.452 M 576.479 69.034 C 576.128 69.602, 579.538 76.465, 584.057 84.284 C 588.576 92.103, 592.920 99.737, 593.710 101.250 C 595.297 104.287, 599 105.043, 599 102.330 C 599 100.754, 585.864 76.689, 581.763 70.750 C 579.812 67.925, 577.607 67.208, 576.479 69.034 M 0.488 240 C 0.488 331.025, 0.606 368.262, 0.750 322.750 C 0.894 277.237, 0.894 202.762, 0.750 157.250 C 0.606 111.737, 0.488 148.975, 0.488 240 M 566.368 76.482 C 565.865 77.795, 577.095 98.881, 582.223 106.250 C 584.443 109.442, 587 109.872, 587 107.054 C 587 105.218, 585.560 102.471, 575.702 85.500 C 569.646 75.075, 567.649 73.146, 566.368 76.482 M 558 88.021 C 558 91.180, 569.238 109.956, 571.143 109.980 C 572.047 109.991, 573.008 109.422, 573.279 108.715 C 573.732 107.534, 569.225 98.908, 563.369 89.750 C 560.765 85.677, 558 84.786, 558 88.021 M 621.342 92.816 C 620.757 93.192, 619.544 94.935, 618.646 96.689 C 616.284 101.299, 607.933 109.174, 601.957 112.427 C 595.592 115.891, 588.018 117.972, 581.719 117.988 C 576.735 118.001, 574.203 120.249, 577.104 122.086 C 582.942 125.782, 604.107 118.954, 613.306 110.407 C 619.015 105.102, 624 98.145, 624 95.482 C 624 92.843, 622.945 91.784, 621.342 92.816 M 166.859 112.158 C 153.732 119.769, 158.411 139.167, 173.374 139.167 C 182.309 139.167, 188.231 133.451, 188.231 124.827 C 188.231 113.512, 176.507 106.563, 166.859 112.158 M 836.241 120.250 C 833.125 123.577, 832 127.373, 832 134.565 C 832 138.104, 831.757 141, 831.460 141 C 831.162 141, 829.585 140.014, 827.955 138.809 C 824.351 136.144, 820.823 136.997, 817.613 141.309 C 815.817 143.721, 815.530 145.484, 815.579 153.809 C 815.626 161.862, 816.176 165.190, 818.836 173.500 C 822.335 184.430, 827.737 195.801, 830.155 197.326 C 832.373 198.725, 836.760 197.331, 837.503 194.991 C 837.916 193.690, 837.073 191.122, 835.099 187.672 C 829.116 177.215, 823.589 155.653, 825.956 152 C 827.552 149.537, 829.365 152.356, 833.588 163.864 C 838.108 176.181, 840.055 179, 844.037 179 C 849.110 179, 849.448 176.251, 845.443 167.582 C 839.261 154.203, 836.189 137.500, 839.910 137.500 C 840.805 137.500, 842.527 141.100, 844.621 147.346 C 850.005 163.404, 854.019 168.666, 858.895 166.056 C 861.899 164.448, 862.410 161.389, 860.198 158.249 C 856.441 152.916, 853.979 146.989, 852.004 138.517 C 847.766 120.344, 842.198 113.891, 836.241 120.250 M 422.500 127.808 C 408.009 131.524, 394.578 141.779, 387.407 154.601 C 383.395 161.774, 380 174.149, 380 181.598 C 380 188.908, 382.569 199.332, 386.188 206.709 C 389.887 214.249, 398.163 223.613, 405.013 228.008 C 407.798 229.795, 409.946 231.376, 409.788 231.521 C 409.630 231.666, 407.700 232.779, 405.500 233.995 C 375.170 250.750, 354.325 268.070, 332.076 295 L 330.011 297.500 331.519 293.748 C 333.701 288.325, 336 276.648, 336 270.997 C 336 246.321, 317.397 223.315, 292.745 217.502 C 274.054 213.095, 255.327 218.534, 241.389 232.417 C 230.155 243.607, 225 255.734, 225 270.971 C 225 289.132, 231.942 303.698, 246.058 315.157 C 265.535 330.969, 294.850 330.855, 314.903 314.888 C 317.706 312.656, 320 311.157, 320 311.557 C 320 311.957, 318.119 315.258, 315.819 318.892 C 305.409 335.346, 293.795 362.653, 288.552 383 C 288.198 384.375, 287.306 387.750, 286.570 390.500 C 281.389 409.849, 276.984 448.121, 277.016 473.500 C 277.025 480.421, 277.065 480.526, 280.587 482.808 C 287.522 487.301, 287.953 489.656, 287.978 523.125 C 287.990 539.419, 288.281 554.156, 288.625 555.875 C 289.332 559.411, 292.057 560.026, 295.500 557.426 C 297.419 555.977, 297.513 554.554, 297.811 522.464 L 298.122 489.013 301.429 485.506 L 304.736 482 326.291 482 L 347.846 482 350.786 484.940 C 352.403 486.557, 354.013 489.313, 354.363 491.065 C 354.713 492.817, 355 517.166, 355 545.175 C 355 601.010, 355.141 599.627, 348.984 604.011 C 346.061 606.093, 345.137 606.166, 325.969 605.840 C 314.985 605.653, 305.999 605.858, 305.999 606.296 C 306 606.733, 307.129 609.208, 308.509 611.796 L 311.017 616.500 302.079 617.146 C 286.730 618.256, 275.444 623.363, 265 633.926 C 231.770 667.533, 253.806 724.905, 301.018 727.701 C 306.644 728.035, 312.708 727.799, 315.848 727.126 C 335.960 722.813, 353.342 706.054, 358.505 686 C 359.425 682.425, 360.290 679.385, 360.428 679.245 C 360.565 679.105, 361.987 680.139, 363.588 681.544 C 389.376 704.166, 424.122 722.166, 459 730.972 C 483.478 737.151, 513.317 741, 536.752 741 C 547.676 741, 546.176 739.724, 556.008 757.383 C 566.006 775.340, 595.733 812.067, 615.315 830.655 L 624.959 839.810 616.527 843.987 C 596.187 854.063, 584.696 872.347, 584.780 894.500 C 584.842 910.625, 590.449 923.582, 602.118 934.565 C 615.301 946.972, 632.732 952.052, 650.298 948.607 C 662.040 946.304, 670.189 941.891, 679.040 933.040 C 688.366 923.714, 692.586 915.611, 694.726 902.921 C 696.043 895.108, 696.047 893.075, 694.758 885.778 C 693.954 881.225, 692.442 875.323, 691.400 872.662 L 689.503 867.824 692.103 865.662 C 693.533 864.473, 700.507 859.244, 707.601 854.042 C 714.696 848.841, 725.450 840.926, 731.500 836.455 C 737.550 831.983, 743.226 828.065, 744.113 827.746 C 745.261 827.335, 746.396 828.370, 748.048 831.334 C 760.472 853.628, 787.335 864.232, 811.807 856.501 C 816.158 855.127, 821.376 852.877, 823.403 851.501 C 825.430 850.125, 827.418 849, 827.821 849 C 829.380 849, 839.846 837.010, 842.758 831.889 C 844.443 828.925, 846.819 823.194, 848.038 819.153 C 851.030 809.233, 850.456 794.577, 846.714 785.339 C 840.245 769.369, 828.535 758.171, 812.319 752.449 C 802.538 748.997, 789.215 749.027, 778.925 752.523 C 761.616 758.404, 750.034 770, 743.006 788.483 C 742.046 791.010, 741.961 791.031, 738.949 789.474 C 734.626 787.238, 716.028 773.027, 706.500 764.678 C 699.350 758.413, 684.988 743.811, 680.754 738.500 C 679.876 737.400, 676.968 733.800, 674.290 730.500 C 667.483 722.110, 665 718.427, 665 716.720 C 665 715.903, 668.223 713.594, 672.250 711.526 C 712.478 690.867, 744.998 659.447, 767.348 619.646 C 776.129 604.009, 775.656 605.513, 773.176 601.100 C 771.299 597.760, 770.998 595.664, 770.985 585.864 C 770.968 573.360, 769.954 569.578, 768.114 575.154 C 765.015 584.544, 752.515 596.374, 739.744 602.003 C 722.223 609.725, 698.462 610.236, 680.020 603.286 C 672.405 600.417, 662.463 593.918, 657.778 588.748 C 655.331 586.048, 654 587.408, 654 592.609 C 654 595.079, 653.317 598.419, 652.483 600.033 C 649.754 605.310, 646.920 606, 627.980 606 C 610.898 606, 610.851 606.006, 606.680 608.797 C 593.942 617.319, 579.592 622.454, 558.885 625.899 C 550.766 627.250, 527.893 627.342, 521.326 626.051 C 518.672 625.529, 513.800 624.593, 510.500 623.972 C 496.473 621.332, 484.909 616.618, 473.320 608.815 L 469.140 606 447.219 606 C 424.689 606, 420.383 605.421, 416.436 601.861 C 413.725 599.417, 413.361 599.476, 409.347 603 L 405.930 606 385.916 606 C 369.981 606, 365.303 605.691, 362.967 604.483 C 356.907 601.349, 357 602.297, 357 543.536 C 357 504.762, 357.319 489.462, 358.155 488.123 C 359.080 486.643, 358.880 485.383, 357.155 481.821 C 355.229 477.841, 355 475.702, 355 461.652 C 355 442.706, 355.824 439.889, 362.212 436.990 C 365.941 435.298, 368.831 435.041, 384.384 435.022 C 403.702 434.998, 408.539 435.816, 412.214 439.728 C 414.432 442.089, 414.500 442.733, 414.500 461.476 C 414.500 478.787, 414.310 481, 412.670 482.812 C 411.200 484.437, 411.060 485.243, 411.955 486.917 C 413.485 489.775, 414.482 489.546, 417.449 485.656 C 419.839 482.523, 420 481.589, 420.003 470.906 C 420.007 456.262, 422.337 432.081, 425.020 418.852 C 430.742 390.632, 437.798 374.402, 453.455 353.454 C 456.091 349.928, 463.012 343.408, 471.402 336.548 C 475.179 333.460, 488.823 326.754, 496.697 324.115 C 512.073 318.964, 533.869 316.564, 551.500 318.081 C 599.108 322.177, 628.232 343.634, 647.076 388.500 C 655.923 409.563, 661.648 447.372, 660.745 478.777 C 660.488 487.729, 660.614 495.262, 661.025 495.516 C 661.437 495.770, 662.309 495.333, 662.964 494.544 C 665.116 491.950, 673.697 486.956, 679.652 484.830 C 700.828 477.272, 727.889 478.813, 745.347 488.570 C 753.352 493.044, 768.853 510.305, 769.070 514.987 C 769.118 516.013, 769.417 515.856, 770 514.500 C 770.473 513.400, 770.891 507.167, 770.930 500.650 L 771 488.800 774.400 485.400 L 777.800 482 789.778 482 C 799.349 482, 802.012 481.690, 803.035 480.458 C 804.070 479.211, 804.085 474.477, 803.114 455.708 C 802.453 442.944, 801.451 429.575, 800.887 426 C 797.808 406.489, 797.297 403.775, 794.585 392.500 C 785.964 356.671, 769.874 323.287, 747.111 294 C 739.459 284.154, 724.575 268.851, 714.500 260.471 C 700.944 249.195, 673.294 232.214, 660 227.001 C 656.975 225.815, 653.150 224.248, 651.500 223.520 C 635.787 216.587, 611.241 210.483, 581 205.988 C 562.461 203.232, 516.526 203.715, 492.500 206.919 C 489.200 207.359, 486.322 207.566, 486.104 207.379 C 485.885 207.193, 486.728 204.444, 487.976 201.270 C 490.782 194.133, 491.823 178.280, 490.047 169.726 C 486.156 150.985, 470.626 134.478, 451.160 128.394 C 443.511 126.003, 430.568 125.739, 422.500 127.808 M 432.152 149.509 C 423.419 153.574, 408.700 162.597, 405.814 165.655 C 400.019 171.792, 399.582 178.167, 404.337 187.177 C 416.543 210.301, 420.336 214.903, 428.452 216.425 C 432.723 217.226, 438.350 215.146, 450.191 208.387 C 468.433 197.975, 472.925 191.739, 469.483 181.602 C 467.850 176.792, 456.220 156.219, 453.113 152.644 C 450.667 149.828, 444.477 146.999, 440.790 147.010 C 438.980 147.015, 435.093 148.140, 432.152 149.509 M 433.500 155.617 C 410.721 167.302, 405.530 172.170, 407.803 179.715 C 409.258 184.547, 418.862 201.351, 422.969 206.250 C 427.794 212.005, 431.597 211.591, 445.900 203.750 C 467.075 192.141, 467.966 189.727, 457.750 171.633 C 450.244 158.337, 445.546 152.989, 441.405 153.026 C 439.807 153.040, 436.250 154.206, 433.500 155.617 M 439.200 157.200 C 437.560 158.840, 437.692 161.500, 439.487 162.989 C 442.665 165.627, 447.347 160.490, 444.427 157.569 C 442.549 155.692, 440.829 155.571, 439.200 157.200 M 429.180 167.682 C 415.982 174.185, 417.990 192.982, 432.322 197.092 C 438.327 198.815, 446.437 194.923, 449.603 188.800 C 456.298 175.854, 442.193 161.269, 429.180 167.682 M 1069.114 170.626 C 1055.410 173.424, 1040.017 185.601, 1033.099 199.118 C 1031.254 202.722, 1029.344 208.797, 1028.354 214.212 C 1026.931 221.988, 1026.872 224.422, 1027.936 231.373 C 1030.247 246.470, 1036.747 257.923, 1047.937 266.613 C 1055.102 272.177, 1059.158 274.375, 1066.011 276.411 C 1076.151 279.422, 1076 279.554, 1076 267.673 L 1076 257.346 1073.250 257.696 C 1070.637 258.028, 1069.951 257.084, 1059.500 238.773 C 1053.450 228.173, 1048.366 218.356, 1048.202 216.958 C 1047.960 214.889, 1048.584 214.092, 1051.558 212.674 C 1054.308 211.362, 1055.547 211.209, 1056.565 212.054 C 1057.309 212.671, 1061.874 220.124, 1066.709 228.616 L 1075.500 244.056 1075.772 224.962 C 1075.921 214.461, 1075.921 197.646, 1075.772 187.596 L 1075.500 169.323 1069.114 170.626 M 29.241 171.034 C 27.999 171.534, 23.949 173.916, 20.241 176.329 C 16.533 178.741, 12.065 181.452, 10.311 182.352 C 3.100 186.052, 1.847 193.047, 7.400 198.600 C 10.266 201.466, 11.512 202, 15.329 202 C 18.015 202, 20.466 201.392, 21.353 200.504 C 22.176 199.681, 23.896 198.546, 25.175 197.982 C 26.454 197.419, 29.300 195.603, 31.500 193.947 C 33.700 192.292, 36.512 190.513, 37.750 189.994 C 40.290 188.928, 43.991 183.422, 43.996 180.700 C 44.003 177.590, 41.083 173.094, 38.033 171.517 C 34.749 169.819, 32.564 169.699, 29.241 171.034 M 429.273 175.527 C 426.187 178.613, 425.819 179.498, 426.325 182.616 C 427.040 187.022, 428.557 188.916, 432.788 190.684 C 435.640 191.876, 436.515 191.849, 439.399 190.481 C 446.668 187.032, 447.030 177.135, 440.020 173.510 C 435.571 171.210, 433.133 171.667, 429.273 175.527 M 281.724 232.460 C 280.198 233.257, 274.186 238.316, 268.366 243.704 C 256.019 255.134, 252.002 261.772, 252.001 270.750 C 252 273.637, 252.414 276, 252.920 276 C 253.425 276, 254.596 273.721, 255.522 270.935 C 256.447 268.150, 257.430 266.096, 257.706 266.372 C 257.982 266.648, 257.663 271.663, 256.998 277.515 C 254.618 298.464, 259.464 313, 268.829 313 C 271.701 313, 273.269 312.021, 278.126 307.194 C 282.814 302.535, 285.160 301.031, 290.002 299.581 C 302.002 295.986, 310.970 284.522, 310.990 272.750 C 310.996 269.587, 310.622 267, 310.160 267 C 309.698 267, 306.965 268.288, 304.086 269.862 C 299.827 272.191, 298.412 273.676, 296.481 277.843 C 293.671 283.908, 289.295 286.993, 283.500 286.993 C 279.227 286.993, 273 283.881, 273 281.746 C 273 281.039, 275.587 279.010, 278.750 277.236 C 295.427 267.880, 307.478 260.664, 308.186 259.611 C 309.221 258.070, 306.045 253.275, 300.919 248.641 C 296.073 244.262, 289.987 242, 283.045 242 C 280.885 242, 278.868 241.595, 278.562 241.101 C 278.257 240.606, 279.596 238.806, 281.538 237.101 C 286.030 233.157, 290.062 232.992, 292.927 236.635 C 294.490 238.621, 295 238.856, 295 237.589 C 295 234.921, 290.411 230.999, 287.295 231.006 C 285.758 231.010, 283.251 231.664, 281.724 232.460 M 274.121 256.710 C 272.263 257.625, 269.902 259.753, 268.875 261.437 C 266.586 265.192, 266.366 271.819, 268.503 272.640 C 270.129 273.263, 290.142 262.073, 290.770 260.189 C 291.358 258.426, 284.884 255.005, 281 255.027 C 279.075 255.037, 275.980 255.795, 274.121 256.710 M 914.276 259.511 C 899.228 262.781, 884.329 274.410, 877.641 288.105 C 870.784 302.147, 869.405 313.570, 872.934 327.090 C 877.058 342.888, 886.029 354.444, 900.414 362.489 C 925.023 376.251, 958.073 367.683, 973.520 343.537 C 978.898 335.128, 981.127 327.908, 981.726 316.944 C 982.350 305.533, 981.210 299.487, 976.517 289.331 C 972.453 280.535, 961.793 269.219, 953.325 264.711 C 942.013 258.690, 927.158 256.712, 914.276 259.511 M 910.968 285.277 C 909.025 287.050, 902.642 292.651, 896.783 297.724 L 886.130 306.948 898.800 328.974 C 905.768 341.088, 911.927 351.011, 912.485 351.025 C 913.043 351.038, 921.487 348.466, 931.250 345.309 C 943.176 341.452, 949 339.105, 949 338.154 C 949 337.377, 945.312 330.386, 940.803 322.620 C 936.295 314.854, 931.458 306.436, 930.053 303.913 C 921.510 288.565, 917.325 282.056, 916 282.055 C 915.175 282.055, 912.911 283.504, 910.968 285.277 M 934.750 287.172 C 929.938 289.952, 926 292.832, 926 293.572 C 926 294.313, 927.237 296.978, 928.750 299.496 C 931.555 304.165, 935.073 306.092, 937.701 304.397 C 939.470 303.256, 948.148 284.048, 947.424 282.876 C 946.369 281.170, 943.399 282.176, 934.750 287.172 M 949.290 289.208 C 948.726 289.918, 946.409 294.438, 944.141 299.250 C 940.570 306.830, 939.683 308, 937.509 308 C 936.129 308, 935 308.403, 935 308.895 C 935 310.464, 942.463 322.981, 943.404 322.991 C 944.470 323.002, 956.292 316.538, 960.250 313.780 C 961.763 312.726, 963 311.196, 963 310.379 C 963 309.014, 952.829 290.525, 951.078 288.708 C 950.659 288.272, 949.854 288.497, 949.290 289.208 M 262.481 296.031 C 261.519 297.587, 263.937 304.815, 266.363 307.635 C 269.093 310.810, 272.112 310.460, 276.923 306.411 C 281.028 302.957, 280.835 301.239, 276.250 300.426 C 274.188 300.060, 270.374 298.714, 267.776 297.435 C 265.177 296.155, 262.794 295.523, 262.481 296.031 M 112 307.091 C 103.527 308.734, 93.031 314.791, 85.451 322.412 C 73.811 334.115, 68.257 348.626, 69.330 364.527 C 70.919 388.082, 85.700 406.744, 109 414.613 C 116.700 417.213, 133.403 417.193, 141 414.575 C 160.092 407.993, 173.847 393.435, 178.653 374.725 C 180.846 366.187, 180.003 349.697, 176.980 342 C 170.255 324.879, 155.930 312.082, 138.369 307.508 C 132.134 305.884, 119.277 305.681, 112 307.091 M 909.073 311.635 C 906.656 314.708, 906.458 317.767, 908.379 322.364 C 911.465 329.751, 919.913 332.468, 923.927 327.365 C 926.422 324.194, 926.553 320.968, 924.373 316.374 C 920.857 308.963, 913.071 306.552, 909.073 311.635 M 912.724 313.134 C 909.906 314.712, 910.504 320.413, 913.885 324.197 C 916.556 327.187, 916.972 327.334, 919.510 326.177 C 921.954 325.064, 922.187 324.540, 921.668 321.340 C 920.755 315.717, 915.965 311.321, 912.724 313.134 M 1004.201 415.997 C 997.144 417.500, 984.287 424.972, 978.276 431.064 C 965.765 443.741, 960.249 461.172, 963.422 478 C 964.200 482.125, 965.151 486.512, 965.535 487.750 C 966.222 489.962, 966.090 490, 957.693 490 C 946.926 490, 940.354 491.374, 931.500 495.477 C 919.762 500.916, 909.305 513.235, 905.699 525.870 C 904.062 531.610, 903.667 552.738, 905.080 559 C 908.936 576.083, 922.297 589.825, 940 594.914 C 942.475 595.626, 945.534 596.611, 946.797 597.104 C 950.108 598.396, 973.118 598.207, 978.736 596.843 C 985.002 595.320, 988.154 594.118, 995.444 590.469 C 1001.937 587.219, 1002.513 585.854, 999.864 580 C 999.242 578.625, 998.383 576.600, 997.955 575.500 C 997.528 574.400, 996.351 571.364, 995.339 568.754 C 993.278 563.435, 991.898 562.968, 986.763 565.852 C 982.126 568.457, 978.105 569.176, 965.381 569.678 C 954.999 570.088, 953.971 569.954, 949.881 567.662 C 944.261 564.512, 940.234 559.443, 939.823 555 L 939.500 551.500 971.338 551.236 L 1003.176 550.972 1002.655 540.236 C 1002.369 534.331, 1001.824 527.763, 1001.445 525.639 L 1000.755 521.779 1006.128 522.639 C 1017.940 524.532, 1033.711 522.378, 1041.788 517.770 C 1052.049 511.916, 1061.350 502.522, 1065.323 494 C 1073.449 476.572, 1072.702 457.126, 1063.289 441.044 C 1057.795 431.658, 1046.511 422.575, 1034.500 417.871 C 1028.722 415.608, 1011.134 414.520, 1004.201 415.997 M 366.750 446.080 C 365.218 446.973, 365 448.810, 365 460.859 C 365 470.310, 365.393 475.155, 366.254 476.332 C 367.373 477.863, 369.493 478.018, 386.004 477.774 L 404.500 477.500 404.775 461.880 L 405.049 446.260 401.900 445.630 C 396.787 444.607, 368.660 444.968, 366.750 446.080 M 135 450.959 C 134.175 451.515, 131.839 451.976, 129.809 451.985 C 127.779 451.993, 125.840 452.450, 125.500 453 C 125.160 453.550, 123.874 454, 122.641 454 C 121.408 454, 119.972 454.378, 119.450 454.840 C 118.927 455.302, 116.925 456.292, 115 457.041 C 109.213 459.292, 101.807 464.501, 96.349 470.160 C 91.455 475.234, 84 485.882, 84 487.798 C 84 488.290, 83.266 490.165, 82.368 491.964 C 78.156 500.407, 75.568 520.098, 77.041 532.500 C 79.832 556.008, 87.394 571.065, 102.650 583.492 C 113.870 592.632, 129.184 598, 144.039 598 C 150.443 598, 151.126 598.200, 151.928 600.309 C 153.159 603.548, 164.106 617.883, 168.151 621.554 C 173.039 625.990, 184.986 634, 186.714 634 C 188.089 634, 202.835 624.184, 205.828 621.277 C 206.558 620.567, 208.021 619.524, 209.078 618.958 C 212.353 617.206, 211.240 615.182, 204.746 611.081 C 201.306 608.909, 195.205 603.753, 191.187 599.625 C 184.054 592.295, 183.927 592.075, 185.784 590.309 C 186.831 589.314, 188.995 587.725, 190.593 586.779 C 195.230 584.033, 197.241 582.636, 199.636 580.500 C 202.723 577.745, 211.999 565.054, 213.156 562 C 213.677 560.625, 214.916 557.700, 215.909 555.500 C 220.049 546.328, 221.417 538.342, 221.392 523.500 C 221.370 510.849, 220.709 505.342, 218.335 498.047 C 216.904 493.651, 212.776 484.795, 209.953 480.067 C 204.774 471.395, 193.384 461.507, 183.500 457.103 C 181.850 456.368, 179.719 455.369, 178.764 454.883 C 177.809 454.397, 176.148 454, 175.073 454 C 173.998 454, 172.869 453.598, 172.565 453.106 C 171.717 451.733, 164.809 450.906, 150 450.405 C 141.769 450.126, 135.915 450.342, 135 450.959 M 532.225 467.750 L 532.500 483.500 563.826 483.764 L 595.152 484.029 592.326 487.856 C 590.772 489.961, 588.484 492.992, 587.241 494.591 C 585.999 496.191, 582.919 500.200, 580.397 503.500 C 577.874 506.800, 574.752 510.850, 573.457 512.500 C 572.163 514.150, 568.718 518.696, 565.802 522.601 C 550.864 542.607, 539.446 557.641, 538.292 558.821 C 537.581 559.548, 537 560.453, 537 560.832 C 537 561.210, 535.863 562.747, 534.472 564.246 C 531.983 566.931, 531.949 567.188, 532.222 581.236 L 532.500 595.500 588 595.500 L 643.500 595.500 643.778 581.136 C 643.967 571.397, 643.686 566.326, 642.906 565.386 C 641.970 564.259, 635.915 564, 610.437 564 C 593.211 564, 578.883 563.620, 578.596 563.155 C 578.113 562.373, 582.233 556.745, 609.094 521.500 C 614.543 514.350, 623.726 502.281, 629.501 494.679 L 640 480.859 640 466.429 L 640 452 585.975 452 L 531.949 452 532.225 467.750 M 137.500 483.852 C 126.104 487.755, 119.605 497.813, 116.993 515.594 C 115.196 527.830, 117.879 542.932, 123.591 552.725 C 126.293 557.359, 134.242 564, 137.085 564 C 138.073 564, 139.160 564.450, 139.500 565 C 139.840 565.550, 144.115 566, 149 566 C 153.885 566, 158.160 565.550, 158.500 565 C 158.840 564.450, 160.022 564, 161.126 564 C 163.196 564, 169.103 560.053, 172.335 556.511 C 177.898 550.413, 181.343 537.345, 181.182 522.957 C 180.996 506.406, 177.779 496.800, 170.021 489.634 C 162.138 482.352, 148.805 479.981, 137.500 483.852 M 696.500 491 C 695.400 491.473, 693.064 491.891, 691.309 491.930 C 689.554 491.968, 687.840 492.450, 687.500 493 C 687.160 493.550, 686.121 493.993, 685.191 493.984 C 681.821 493.953, 672.592 499.625, 667.066 505.123 C 661.092 511.067, 655.296 520.744, 653.686 527.466 C 651.828 535.221, 651.745 551.644, 653.528 558.821 C 659.708 583.696, 679.778 598, 708.500 598 C 720.640 598, 727.597 596.441, 737.773 591.442 C 750.974 584.955, 758.949 574.686, 762.968 558.997 C 764.315 553.739, 763.865 531.336, 762.303 525.870 C 760.010 517.850, 755.703 510.962, 749.108 504.769 C 742.198 498.281, 739.377 496.571, 730.500 493.487 C 721.558 490.380, 701.377 488.904, 696.500 491 M 839.320 491.348 C 837.020 491.982, 834.808 492.837, 834.403 493.250 C 833.998 493.663, 833.054 494, 832.305 494 C 831.556 494, 828.043 496.250, 824.500 499 C 820.957 501.750, 817.819 504, 817.529 504 C 817.238 504, 817 502.717, 817 501.149 C 817 499.581, 816.502 496.871, 815.894 495.126 L 814.788 491.954 797.822 492.227 L 780.857 492.500 780.963 543.462 C 781.043 582.278, 781.358 594.608, 782.284 595.197 C 783.715 596.106, 815.104 596.281, 817.418 595.393 C 818.815 594.857, 819 591.066, 819 563.043 L 819 531.300 821.980 527.186 C 826.367 521.130, 829.116 519.696, 836.540 519.591 C 842.163 519.511, 843.262 519.816, 845.542 522.093 C 846.971 523.518, 848.547 526.443, 849.046 528.593 C 849.544 530.742, 849.963 546.554, 849.976 563.731 L 850 594.962 852.250 595.517 C 853.487 595.822, 861.700 595.943, 870.500 595.786 L 886.500 595.500 886.494 558.500 C 886.490 535.528, 886.078 519.771, 885.408 516.939 C 883.883 510.495, 880.111 503.355, 875.996 499.122 C 868.439 491.349, 851.979 487.860, 839.320 491.348 M 241 527.634 C 241 549.923, 241.404 564.809, 242.079 567.384 C 244.721 577.459, 245.481 579.659, 247.186 582.154 C 248.184 583.614, 249 585.137, 249 585.538 C 249 587.827, 258.215 593.692, 266.157 596.458 C 277.117 600.275, 295.506 596.817, 302.962 589.537 C 307.791 584.822, 309 584.993, 309 590.393 C 309 593.476, 309.472 594.967, 310.582 595.393 C 312.934 596.296, 342.297 596.098, 343.759 595.170 C 344.750 594.541, 344.963 583.521, 344.759 543.435 L 344.500 492.500 326.500 492.500 L 308.500 492.500 307.925 524 C 307.609 541.325, 306.985 556.784, 306.539 558.353 C 305.385 562.410, 299.710 567.707, 295.007 569.116 C 290.109 570.584, 284.302 569.014, 280.785 565.272 C 278.512 562.854, 278.499 562.666, 278.228 529.671 C 278.079 511.427, 277.733 495.488, 277.459 494.250 C 276.966 492.019, 276.814 492, 258.981 492 L 241 492 241 527.634 M 367.458 493.250 C 367.195 493.938, 367.097 517.225, 367.240 545 L 367.500 595.500 385 595.500 L 402.500 595.500 402.759 543.750 L 403.018 492 385.478 492 C 372.367 492, 367.816 492.316, 367.458 493.250 M 423.677 492.657 C 423.305 493.029, 423 498.828, 423 505.544 C 423 514.484, 423.356 518.051, 424.330 518.859 C 425.193 519.575, 433.801 520.057, 448.883 520.231 L 472.107 520.500 465.915 527 C 443.744 550.272, 431.184 563.653, 426.721 568.753 L 423 573.006 423 583.896 C 423 592.904, 423.273 594.891, 424.582 595.393 C 426.648 596.186, 513.352 596.186, 515.418 595.393 C 516.741 594.885, 517 592.789, 517 582.593 C 517 574.443, 516.602 570.002, 515.800 569.200 C 514.934 568.334, 507.961 568, 490.727 568 C 470.638 568, 466.905 567.775, 467.177 566.583 C 467.486 565.226, 472.425 559.888, 495.938 535.500 C 501.771 529.450, 508.461 522.357, 510.804 519.737 L 515.065 514.974 514.783 503.737 L 514.500 492.500 469.427 492.240 C 444.636 492.097, 424.049 492.284, 423.677 492.657 M 0.487 647.500 C 0.487 730.550, 0.605 764.673, 0.750 723.329 C 0.894 681.984, 0.894 614.034, 0.750 572.329 C 0.605 530.623, 0.487 564.450, 0.487 647.500 M 948.324 516.612 C 944.381 518.556, 940.277 524.595, 939.834 529.102 L 939.500 532.500 955.500 532.500 L 971.500 532.500 971.238 529 C 970.833 523.590, 969.268 520.742, 965.054 517.750 C 960.522 514.533, 953.508 514.055, 948.324 516.612 M 698.859 520.158 C 691.426 524.468, 687.776 537.095, 689.988 550.853 C 692.333 565.438, 696.816 570, 708.806 570 C 715.199 570, 715.910 569.769, 719.820 566.422 C 722.119 564.454, 724 562.069, 724 561.122 C 724 560.175, 724.395 558.972, 724.879 558.450 C 725.362 557.928, 726.211 554.333, 726.765 550.462 C 728.656 537.259, 724.762 524.265, 717.605 519.901 C 713.201 517.215, 703.709 517.345, 698.859 520.158 M 414 545.666 L 414 567.333 421.750 559.026 C 426.012 554.457, 429.817 550.185, 430.204 549.531 C 430.591 548.877, 430.074 545.452, 429.054 541.921 C 428.035 538.389, 426.936 534.320, 426.613 532.878 C 426.183 530.956, 425.214 530.093, 422.987 529.647 C 421.316 529.313, 418.815 527.906, 417.429 526.520 C 416.043 525.134, 414.705 524, 414.455 524 C 414.205 524, 414 533.750, 414 545.666 M 702.736 530.280 C 699.789 534.778, 698.554 543.430, 699.962 549.720 C 701.806 557.959, 703.410 560, 708.044 560 C 712.651 560, 714.568 558.268, 716.120 552.705 C 718.582 543.879, 717.401 534.548, 713.217 529.750 C 710.898 527.092, 704.617 527.410, 702.736 530.280 M 1072 581.583 C 1055.752 594.943, 1047.945 616.388, 1052.116 636.201 C 1054.036 645.323, 1060.216 656.881, 1066.617 663.323 C 1076.586 673.354, 1076 674.120, 1076 651.059 C 1076 632.821, 1075.823 630.758, 1074.004 627.774 C 1071.447 623.580, 1071.456 617.756, 1074.027 612.443 C 1075.831 608.718, 1076.024 606.624, 1075.777 593.480 L 1075.500 578.705 1072 581.583 M 67.520 590.287 C 65.332 591.526, 62.589 594.237, 61.426 596.311 C 59.586 599.592, 59.145 599.880, 58.030 598.536 C 56.885 597.157, 56.362 597.223, 53.124 599.150 C 46.122 603.320, 45.995 602.311, 55.623 618.986 C 60.463 627.367, 64.962 634.432, 65.622 634.685 C 67.024 635.223, 75 630.190, 75 628.768 C 75 628.237, 72.525 623.596, 69.500 618.456 C 66.475 613.317, 64 608.166, 64 607.010 C 64 604.531, 68.214 600, 70.520 600 C 73.927 600, 76.083 602.346, 81.553 612.007 C 84.665 617.503, 87.646 622, 88.177 622 C 89.553 622, 98 616.948, 98 616.125 C 98 615.748, 94.924 610.278, 91.164 603.970 C 81.839 588.324, 76.471 585.217, 67.520 590.287 M 24.073 595.635 C 22.933 597.084, 22 599.109, 22 600.135 C 22 602.806, 25.565 606, 28.545 606 C 31.107 606, 36 602.048, 36 599.980 C 36 598.439, 33.929 594.652, 32.600 593.765 C 30.173 592.145, 26.119 593.034, 24.073 595.635 M 34.754 609.790 C 32.144 611.280, 30.006 612.823, 30.004 613.217 C 29.998 614.233, 45.998 642.216, 47.523 643.856 C 48.575 644.988, 49.543 644.766, 53.391 642.511 C 55.926 641.025, 58 639.378, 58 638.850 C 58 637.865, 43.115 611.860, 40.793 608.790 C 39.591 607.200, 39.166 607.271, 34.754 609.790 M 277.040 656.615 C 277.018 657.228, 277.900 658.874, 279 660.273 C 280.100 661.671, 281 663.307, 281 663.908 C 281 664.508, 281.450 665, 282 665 C 283.593 665, 283.157 661.997, 281.470 661.350 C 280.628 661.027, 279.296 659.579, 278.510 658.131 C 277.723 656.684, 277.062 656.002, 277.040 656.615 M 941 659.968 C 911.431 665.656, 891.294 694.550, 896.427 723.927 C 899.070 739.053, 906.789 751.289, 919.178 759.989 C 945.254 778.301, 981.315 770.938, 998.624 743.769 C 1002.102 738.310, 1005.872 726.270, 1006.574 718.381 C 1008.697 694.536, 992.430 670.326, 968.675 661.977 C 962.189 659.697, 947.828 658.655, 941 659.968 M 132.220 709.447 C 111.875 716.035, 97.933 732.381, 94.304 753.900 C 92.858 762.479, 92.865 763.905, 94.397 771.699 C 96.773 783.792, 101.661 792.907, 110.388 801.517 C 114.300 805.377, 119.829 809.774, 122.675 811.289 C 128.911 814.608, 141.624 818, 147.828 818 C 166.456 818, 184.497 808.743, 194.554 794.024 C 206.609 776.381, 207.921 756.105, 198.258 736.789 C 186.501 713.289, 157.472 701.270, 132.220 709.447 M 145.606 733.523 C 142.914 734.262, 138.261 736.554, 135.267 738.616 C 126.523 744.638, 122.107 751.733, 121.255 761.125 C 120.522 769.211, 123.968 776.268, 130.716 780.500 C 135.160 783.287, 136.174 783.500, 145 783.500 C 153.830 783.500, 154.917 783.272, 160.412 780.258 C 165.821 777.293, 166.643 777.112, 170.066 778.138 C 173.836 779.267, 181 778.594, 181 777.110 C 181 776.670, 180.048 775.453, 178.885 774.405 C 175.271 771.149, 174.837 768.487, 177.020 762.950 C 179.720 756.099, 179.562 750.043, 176.528 744.055 C 171.388 733.913, 159.247 729.777, 145.606 733.523 M 154.649 744.471 C 154.077 745.963, 156.371 749, 158.071 749 C 159.662 749, 159.087 744.247, 157.418 743.607 C 155.293 742.791, 155.294 742.791, 154.649 744.471 M 158.410 750.146 C 157.525 751.577, 162.022 760, 163.670 760 C 166.132 760, 166.087 757.824, 163.535 753.470 C 160.856 748.899, 159.660 748.123, 158.410 750.146 M 140.250 754.139 C 136.262 756.365, 132.987 758.706, 132.972 759.343 C 132.907 762.010, 139.563 772.983, 141.250 772.992 C 143.709 773.003, 143.429 770.589, 140.366 765.362 C 138.671 762.469, 138.077 760.523, 138.699 759.901 C 140.361 758.239, 142.555 759.905, 144.806 764.538 C 146.905 768.857, 149.384 770.318, 150.259 767.750 C 150.494 767.063, 149.666 764.876, 148.419 762.890 C 145.488 758.223, 145.058 755.664, 147.133 755.235 C 148.203 755.015, 149.837 756.640, 151.874 759.949 C 155.030 765.079, 156.637 766.109, 157.594 763.616 C 158.116 762.256, 152.606 752.203, 150.550 750.765 C 148.843 749.571, 147.856 749.894, 140.250 754.139 M 384.244 775.109 C 379.595 775.884, 371.696 779.146, 363.926 783.499 C 361.086 785.089, 353.785 792.231, 350.203 796.921 C 347.219 800.830, 342.199 811.934, 341.247 816.735 C 340.836 818.806, 340.555 824.775, 340.623 830 C 340.850 847.583, 348.526 861.724, 364 873.065 C 368.691 876.504, 376.818 879.548, 386.357 881.441 C 396.603 883.474, 399 883.447, 399 881.300 C 399 879.978, 399.267 879.867, 400.200 880.800 C 401.513 882.113, 407 882.465, 407 881.237 C 407 880.817, 409.255 879.938, 412.011 879.283 C 414.766 878.628, 419.604 876.396, 422.761 874.323 C 436.379 865.377, 444.266 854.004, 447.412 838.773 C 449.282 829.717, 449.378 825.960, 447.923 818.799 C 445.818 808.450, 443.716 803.839, 436.689 794.167 C 432.371 788.223, 419.338 779.126, 412.500 777.282 C 399.482 773.771, 394.554 773.392, 384.244 775.109 M 123 778.459 C 123 783.354, 131.359 790, 137.514 790 C 139.332 790, 140.596 790.883, 141.797 792.994 C 142.733 794.640, 143.853 795.990, 144.284 795.994 C 144.715 795.997, 146.004 794.412, 147.149 792.471 C 148.295 790.531, 150.417 788.321, 151.866 787.561 C 154.285 786.293, 153.805 786.188, 146 786.278 C 136.304 786.391, 131.453 784.788, 126.250 779.753 C 123.552 777.142, 123 776.922, 123 778.459 M 430.392 824.573 C 430.027 826.027, 430.237 827.637, 430.873 828.273 C 431.709 829.109, 432 828.444, 432 825.700 C 432 821.391, 431.312 820.909, 430.392 824.573 M 1024.735 840.888 C 1011.665 848.529, 1000.302 855.334, 999.485 856.012 C 997.350 857.784, 997.663 862.937, 1000.151 867 C 1001.330 868.925, 1003.181 872.075, 1004.264 874 C 1016.324 895.439, 1026.551 912.224, 1028.037 913.020 C 1031.157 914.690, 1032.698 914.184, 1043.257 908.030 C 1048.891 904.746, 1058.551 899.233, 1064.724 895.780 L 1075.948 889.500 1075.974 876.397 L 1076 863.294 1067.882 849.397 C 1055.832 828.768, 1054.923 827.541, 1051.470 827.249 C 1049.203 827.057, 1042.876 830.285, 1024.735 840.888 M 380.429 839.023 C 380.429 840.124, 380.895 840.866, 381.464 840.672 C 382.034 840.479, 383.512 841.686, 384.750 843.355 C 386.065 845.128, 387 845.766, 387 844.890 C 387 844.066, 385.521 841.959, 383.714 840.208 C 380.823 837.405, 380.429 837.263, 380.429 839.023 M 1031.748 844.427 C 1020.770 848.344, 1013.681 858.593, 1013.672 870.558 C 1013.668 876.453, 1014.142 878.491, 1016.551 882.917 C 1027.483 903.001, 1055.648 902.726, 1065.574 882.438 C 1074.412 864.373, 1061.102 842.889, 1041.167 843.044 C 1038.050 843.068, 1033.812 843.690, 1031.748 844.427 M 1055 857.694 C 1051.975 857.862, 1048.033 858.245, 1046.240 858.546 C 1043.358 859.031, 1043.103 859.323, 1044.036 861.068 C 1045.444 863.697, 1044.901 864.362, 1038.524 867.816 L 1033.085 870.761 1031.534 868.631 C 1030.048 866.590, 1029.931 866.577, 1028.741 868.332 C 1028.059 869.340, 1025.575 872.837, 1023.223 876.103 C 1019.682 881.020, 1019.223 882.148, 1020.552 882.658 C 1022.104 883.254, 1038.043 882.290, 1038.777 881.557 C 1038.976 881.358, 1038.562 880.271, 1037.857 879.143 C 1037.152 878.014, 1036.784 876.919, 1037.038 876.709 C 1038.003 875.911, 1048.767 870, 1049.255 870 C 1049.536 870, 1050.002 870.900, 1050.290 872 C 1050.577 873.100, 1051.192 873.986, 1051.656 873.968 C 1052.609 873.932, 1061.734 861.003, 1062.198 859.030 C 1062.572 857.443, 1061.872 857.313, 1055 857.694 M 232.500 862.642 C 206.914 866.508, 187.420 885.854, 184.029 910.743 C 183.412 915.276, 183.180 920.676, 183.514 922.743 C 186.037 938.363, 190.485 947.692, 199.897 957.103 C 217.292 974.499, 242.795 978.483, 264.428 967.184 C 280.867 958.598, 291.874 942.793, 293.980 924.750 C 296.714 901.331, 284.748 878.897, 264 868.544 C 260.425 866.760, 255.475 864.806, 253 864.201 C 247.501 862.858, 236.572 862.027, 232.500 862.642 M 645.646 867.178 C 644.650 867.736, 642.398 867.922, 640.642 867.593 C 637.357 866.976, 635.195 868.444, 633.717 872.294 C 633.357 873.232, 632.374 874, 631.531 874 C 630.689 874, 630 874.675, 630 875.500 C 630 876.325, 629.550 877, 629 877 C 628.450 877, 628 877.675, 628 878.500 C 628 879.361, 627.098 880, 625.883 880 C 624.259 880, 623.888 880.465, 624.290 882 C 624.634 883.316, 624.320 884, 623.374 884 C 622.583 884, 621.529 885.013, 621.031 886.250 C 620.534 887.487, 620.098 887.938, 620.063 887.250 C 620.029 886.563, 619.530 886, 618.956 886 C 618.382 886, 618.003 886.563, 618.114 887.250 C 618.443 889.290, 616.891 892, 615.393 892 C 614.518 892, 614 893.094, 614 894.941 C 614 897.776, 615.383 899.813, 616.251 898.256 C 616.483 897.840, 616.521 898.098, 616.337 898.829 C 615.770 901.076, 617.150 905.025, 618.261 904.339 C 618.851 903.974, 619.014 904.168, 618.634 904.783 C 617.812 906.113, 622.827 919, 624.165 919 C 624.689 919, 624.849 919.435, 624.521 919.966 C 624.193 920.497, 624.897 922.859, 626.085 925.216 C 628.768 930.535, 628.601 930.366, 630.183 929.379 C 630.908 928.927, 632.396 928.419, 633.492 928.248 C 634.587 928.078, 638.862 926.629, 642.992 925.027 C 647.121 923.426, 651.931 921.836, 653.681 921.494 C 655.430 921.151, 657.398 920.225, 658.053 919.436 C 658.709 918.646, 660.442 918, 661.905 918 C 663.760 918, 666.599 916.154, 671.283 911.904 C 674.977 908.551, 678 905.287, 678 904.650 C 678 904.013, 675.825 900.793, 673.166 897.496 C 670.508 894.198, 663.988 886.017, 658.677 879.316 C 653.367 872.615, 648.670 866.914, 648.240 866.648 C 647.809 866.382, 646.642 866.621, 645.646 867.178 M 638 880.559 C 638 881.416, 637.550 881.840, 637 881.500 C 636.450 881.160, 636 881.312, 636 881.837 C 636 882.362, 633.862 884.164, 631.248 885.841 C 628.634 887.518, 625.709 890.222, 624.748 891.849 C 622.822 895.109, 622.373 903.495, 624.068 904.542 C 624.656 904.905, 624.886 905.855, 624.580 906.653 C 624.273 907.451, 624.401 907.870, 624.864 907.584 C 625.327 907.298, 626.559 907.710, 627.603 908.500 C 628.646 909.290, 630.476 909.951, 631.668 909.968 C 634.965 910.017, 637 911.053, 637 912.684 C 637 913.773, 636.030 914.069, 633.250 913.827 C 629.942 913.539, 629.460 913.783, 629.161 915.900 C 628.974 917.219, 629.398 919.375, 630.102 920.690 C 631.220 922.779, 632.013 923.053, 636.378 922.853 C 640.686 922.657, 641.900 922.100, 645.187 918.813 C 649.470 914.530, 649.871 912.112, 647.151 906.985 C 646.133 905.068, 645.484 902.973, 645.708 902.329 C 645.962 901.597, 645.385 901.348, 644.170 901.666 C 643.101 901.945, 641.923 901.685, 641.554 901.087 C 641.184 900.489, 641.471 899.993, 642.191 899.985 C 643.155 899.973, 643.112 899.724, 642.026 899.037 C 641.066 898.430, 640.309 898.500, 639.853 899.238 C 639.349 900.053, 638.656 899.968, 637.384 898.936 C 636.279 898.038, 635.898 897.969, 636.367 898.750 C 637.404 900.475, 634.554 900.373, 633.110 898.633 C 632.246 897.592, 632.342 896.961, 633.512 895.990 C 634.357 895.289, 635.316 894.983, 635.643 895.310 C 636.620 896.287, 639.270 893.031, 639.410 890.682 C 639.482 889.482, 638.969 887.905, 638.270 887.179 C 636.574 885.414, 636.645 882.927, 638.372 883.589 C 639.383 883.977, 639.616 883.441, 639.256 881.558 C 638.712 878.715, 638 878.149, 638 880.559 M 232.500 891.956 L 229.500 892.676 232.243 893.444 C 233.752 893.867, 234.738 894.615, 234.434 895.107 C 233.514 896.596, 236.225 896.106, 238.051 894.454 C 239.618 893.036, 239.818 893.137, 240.455 895.678 C 240.879 897.366, 240.730 898.590, 240.075 898.808 C 239.484 899.005, 239 899.606, 239 900.142 C 239 900.679, 239.359 900.896, 239.798 900.625 C 240.237 900.354, 241.245 900.534, 242.039 901.024 C 244.312 902.429, 241.683 904.388, 238.573 903.608 C 236.875 903.182, 236 902.277, 236 900.950 C 236 898.812, 234.344 897.825, 230.106 897.437 C 228.673 897.306, 227.107 897.154, 226.628 897.099 C 226.148 897.045, 226.315 896.325, 227 895.500 C 228.021 894.270, 227.948 894, 226.591 894 C 225.681 894, 224.678 894.675, 224.362 895.500 C 224.045 896.325, 223.238 897, 222.567 897 C 221.897 897, 220.339 898.075, 219.105 899.388 L 216.861 901.777 220.846 902.157 C 223.038 902.366, 224.618 902.191, 224.357 901.768 C 224.096 901.346, 222.934 901, 221.774 901 C 220.615 901, 219.954 900.712, 220.306 900.361 C 221.173 899.493, 229.002 899.328, 229.001 900.177 C 229 900.549, 229.787 901.059, 230.750 901.311 C 231.713 901.562, 230.925 901.840, 229 901.928 L 225.500 902.088 229.500 903.529 C 231.700 904.321, 236.019 904.977, 239.098 904.985 L 244.696 905 243.727 899.250 C 243.195 896.087, 242.308 892.938, 241.757 892.250 C 240.681 890.907, 237.318 890.801, 232.500 891.956 M 212.872 906.654 C 210.707 909.263, 211.049 923.565, 213.402 928.782 C 214.448 931.102, 215.830 933, 216.474 933 C 217.655 933, 228 910.262, 228 907.668 C 228 906.765, 226.361 906.047, 223.360 905.636 C 216.286 904.666, 214.367 904.852, 212.872 906.654 M 870.372 907.897 C 867.001 908.929, 862.951 910.476, 861.372 911.335 C 859.792 912.194, 857.480 913.361, 856.234 913.929 C 851.659 916.016, 840.553 928.415, 837.351 935.012 C 830.863 948.377, 829.603 959.507, 832.897 974.332 C 836.520 990.642, 852.206 1006.872, 869.500 1012.206 C 878.005 1014.829, 892.104 1015.006, 900.194 1012.590 C 930.727 1003.475, 947.181 971.882, 936.958 942 C 934.645 935.238, 928.271 925.366, 923.352 920.926 C 919.593 917.533, 910.229 911, 909.125 911 C 908.646 911, 906.076 910.036, 903.413 908.859 C 896.438 905.773, 878.965 905.265, 870.372 907.897 M 0.462 954.500 C 0.463 980.900, 0.592 991.556, 0.749 978.181 C 0.907 964.805, 0.907 943.205, 0.749 930.181 C 0.591 917.156, 0.462 928.100, 0.462 954.500 M 653.613 912.435 C 653.944 913.296, 653.716 914, 653.107 914 C 650.977 914, 652.022 915.771, 654.423 916.230 C 656.248 916.579, 656.980 916.186, 657.384 914.640 C 658.007 912.256, 658.137 912.444, 655.256 911.559 C 653.481 911.013, 653.138 911.196, 653.613 912.435 M 254.733 923.487 C 243.446 930.087, 241 931.776, 241 932.966 C 241 933.362, 243.270 935.601, 246.045 937.941 C 249.824 941.128, 251.660 942.051, 253.364 941.623 C 256.862 940.746, 262.986 934.226, 265.614 928.581 C 268.191 923.047, 268.795 916.939, 266.750 917.095 C 266.063 917.148, 260.655 920.024, 254.733 923.487 M 221.487 929.624 C 220.119 932.718, 219 936.103, 219 937.146 C 219 939.729, 226.924 944.616, 233.498 946.087 C 238.962 947.310, 246.500 946.357, 246.500 944.443 C 246.500 943.308, 225.983 924, 224.778 924 C 224.336 924, 222.855 926.531, 221.487 929.624 M 492 957.683 C 485.445 958.759, 481.282 962.232, 478.301 969.111 C 477.253 971.530, 476.805 971.688, 472.225 971.248 C 463.561 970.415, 457.481 974.785, 455.124 983.541 C 452.714 992.489, 458.223 1000.443, 470.975 1006.427 C 478.007 1009.727, 480.346 1010.318, 487.821 1010.684 C 493.816 1010.977, 497.264 1010.701, 498.970 1009.790 C 504.702 1006.729, 509.950 994.540, 510.720 982.500 C 511.555 969.445, 508.585 962.533, 500.579 958.896 C 498.335 957.878, 496.050 957.095, 495.500 957.158 C 494.950 957.221, 493.375 957.457, 492 957.683 M 342.750 1075.723 C 344.538 1075.945, 347.462 1075.945, 349.250 1075.723 C 351.038 1075.502, 349.575 1075.320, 346 1075.320 C 342.425 1075.320, 340.962 1075.502, 342.750 1075.723" stroke="none" fill="#217ec6" fill-rule="evenodd"/></svg>